<mxfile host="app.diagrams.net" agent="Mozilla/5.0 (Windows NT 10.0; Win64; x64) AppleWebKit/537.36 (KHTML, like Gecko) Chrome/131.0.0.0 Safari/537.36 Edg/131.0.0.0" version="24.8.6">
  <diagram name="StrÃ¡nka-1" id="rSqoACxf3HP8KVUqwKb1">
    <mxGraphModel dx="2845" dy="1202" grid="1" gridSize="10" guides="1" tooltips="1" connect="1" arrows="1" fold="1" page="1" pageScale="1" pageWidth="3200" pageHeight="1800" math="0" shadow="0">
      <root>
        <mxCell id="0" />
        <mxCell id="1" parent="0" />
        <mxCell id="70BZq5WN445ztoxM5un6-19" value="Start" style="rounded=1;whiteSpace=wrap;html=1;" parent="1" vertex="1">
          <mxGeometry x="200" y="1720" width="240" height="80" as="geometry" />
        </mxCell>
        <mxCell id="70BZq5WN445ztoxM5un6-1" value="" style="endArrow=classic;html=1;rounded=0;entryX=0.5;entryY=1;entryDx=0;entryDy=0;strokeColor=#007FFF;exitX=0.5;exitY=0;exitDx=0;exitDy=0;" parent="1" source="70BZq5WN445ztoxM5un6-19" target="70BZq5WN445ztoxM5un6-4" edge="1">
          <mxGeometry width="50" height="50" relative="1" as="geometry">
            <mxPoint x="320" y="1720" as="sourcePoint" />
            <mxPoint x="280" y="1680" as="targetPoint" />
          </mxGeometry>
        </mxCell>
        <mxCell id="70BZq5WN445ztoxM5un6-2" value="L/+" style="text;html=1;align=center;verticalAlign=middle;whiteSpace=wrap;rounded=0;" parent="1" vertex="1">
          <mxGeometry x="280" y="1640" width="40" height="40" as="geometry" />
        </mxCell>
        <mxCell id="oHiZlL5Amw6MgKZXLNVU-12" style="edgeStyle=orthogonalEdgeStyle;rounded=0;orthogonalLoop=1;jettySize=auto;html=1;exitX=0.5;exitY=0;exitDx=0;exitDy=0;entryX=0.5;entryY=1;entryDx=0;entryDy=0;" edge="1" parent="1" source="70BZq5WN445ztoxM5un6-4" target="70BZq5WN445ztoxM5un6-100">
          <mxGeometry relative="1" as="geometry" />
        </mxCell>
        <mxCell id="70BZq5WN445ztoxM5un6-4" value="State: LETTERS" style="rounded=1;whiteSpace=wrap;html=1;fillColor=none;strokeColor=#007FFF;" parent="1" vertex="1">
          <mxGeometry x="240" y="1440" width="160" height="160" as="geometry" />
        </mxCell>
        <mxCell id="70BZq5WN445ztoxM5un6-13" value="N/+" style="text;html=1;align=center;verticalAlign=middle;whiteSpace=wrap;rounded=0;" parent="1" vertex="1">
          <mxGeometry x="1080" y="1640" width="40" height="40" as="geometry" />
        </mxCell>
        <mxCell id="70BZq5WN445ztoxM5un6-25" value="" style="endArrow=classic;html=1;rounded=0;entryX=0.5;entryY=1;entryDx=0;entryDy=0;strokeColor=#663300;exitX=0.5;exitY=0;exitDx=0;exitDy=0;" parent="1" source="oHiZlL5Amw6MgKZXLNVU-167" target="70BZq5WN445ztoxM5un6-27" edge="1">
          <mxGeometry width="50" height="50" relative="1" as="geometry">
            <mxPoint x="1650" y="1680" as="sourcePoint" />
            <mxPoint x="1610" y="1600" as="targetPoint" />
          </mxGeometry>
        </mxCell>
        <mxCell id="70BZq5WN445ztoxM5un6-26" value="S/" style="text;html=1;align=center;verticalAlign=middle;whiteSpace=wrap;rounded=0;" parent="1" vertex="1">
          <mxGeometry x="1800" y="1640" width="40" height="40" as="geometry" />
        </mxCell>
        <mxCell id="oHiZlL5Amw6MgKZXLNVU-172" style="edgeStyle=orthogonalEdgeStyle;rounded=0;orthogonalLoop=1;jettySize=auto;html=1;exitX=0.5;exitY=0;exitDx=0;exitDy=0;entryX=0.5;entryY=1;entryDx=0;entryDy=0;" edge="1" parent="1" source="70BZq5WN445ztoxM5un6-27" target="70BZq5WN445ztoxM5un6-46">
          <mxGeometry relative="1" as="geometry" />
        </mxCell>
        <mxCell id="70BZq5WN445ztoxM5un6-27" value="State: S. SIMPLE" style="rounded=1;whiteSpace=wrap;html=1;strokeColor=#663300;" parent="1" vertex="1">
          <mxGeometry x="1760" y="1440" width="160" height="160" as="geometry" />
        </mxCell>
        <mxCell id="70BZq5WN445ztoxM5un6-38" value="" style="curved=1;endArrow=classic;html=1;rounded=0;entryX=0.75;entryY=0;entryDx=0;entryDy=0;exitX=0.25;exitY=0;exitDx=0;exitDy=0;strokeColor=#FF3333;" parent="1" source="oHiZlL5Amw6MgKZXLNVU-573" target="oHiZlL5Amw6MgKZXLNVU-573" edge="1">
          <mxGeometry width="50" height="50" relative="1" as="geometry">
            <mxPoint x="2240" y="1399.9999999999995" as="sourcePoint" />
            <mxPoint x="2320" y="1399.9999999999995" as="targetPoint" />
            <Array as="points">
              <mxPoint x="2280" y="1160" />
            </Array>
          </mxGeometry>
        </mxCell>
        <mxCell id="70BZq5WN445ztoxM5un6-39" value="E/-TEOF" style="text;html=1;align=center;verticalAlign=middle;whiteSpace=wrap;rounded=0;" parent="1" vertex="1">
          <mxGeometry x="2160" y="1280" width="80" height="40" as="geometry" />
        </mxCell>
        <mxCell id="70BZq5WN445ztoxM5un6-42" value="" style="endArrow=classic;html=1;rounded=0;entryX=0.5;entryY=1;entryDx=0;entryDy=0;strokeColor=#000000;exitX=0.5;exitY=0;exitDx=0;exitDy=0;" parent="1" source="oHiZlL5Amw6MgKZXLNVU-574" target="70BZq5WN445ztoxM5un6-44" edge="1">
          <mxGeometry width="50" height="50" relative="1" as="geometry">
            <mxPoint x="2520" y="999.9999999999995" as="sourcePoint" />
            <mxPoint x="2518.8199999999997" y="840" as="targetPoint" />
          </mxGeometry>
        </mxCell>
        <mxCell id="70BZq5WN445ztoxM5un6-43" value="X/" style="text;html=1;align=center;verticalAlign=middle;whiteSpace=wrap;rounded=0;" parent="1" vertex="1">
          <mxGeometry x="2240" y="1040" width="40" height="40" as="geometry" />
        </mxCell>
        <mxCell id="70BZq5WN445ztoxM5un6-44" value="LEXICAL ERROR" style="shape=hexagon;perimeter=hexagonPerimeter2;whiteSpace=wrap;html=1;fixedSize=1;fillColor=#FF9933;" parent="1" vertex="1">
          <mxGeometry x="2220" y="920" width="120" height="80" as="geometry" />
        </mxCell>
        <mxCell id="oHiZlL5Amw6MgKZXLNVU-173" style="edgeStyle=orthogonalEdgeStyle;rounded=0;orthogonalLoop=1;jettySize=auto;html=1;exitX=0.5;exitY=0;exitDx=0;exitDy=0;entryX=0.5;entryY=1;entryDx=0;entryDy=0;" edge="1" parent="1" source="70BZq5WN445ztoxM5un6-46" target="70BZq5WN445ztoxM5un6-63">
          <mxGeometry relative="1" as="geometry">
            <Array as="points">
              <mxPoint x="1840" y="1270" />
              <mxPoint x="1640" y="1270" />
            </Array>
          </mxGeometry>
        </mxCell>
        <mxCell id="oHiZlL5Amw6MgKZXLNVU-174" style="edgeStyle=orthogonalEdgeStyle;rounded=0;orthogonalLoop=1;jettySize=auto;html=1;exitX=0.5;exitY=0;exitDx=0;exitDy=0;entryX=0.5;entryY=1;entryDx=0;entryDy=0;" edge="1" parent="1" source="oHiZlL5Amw6MgKZXLNVU-210" target="70BZq5WN445ztoxM5un6-65">
          <mxGeometry relative="1" as="geometry" />
        </mxCell>
        <mxCell id="oHiZlL5Amw6MgKZXLNVU-175" style="edgeStyle=orthogonalEdgeStyle;rounded=0;orthogonalLoop=1;jettySize=auto;html=1;exitX=0.5;exitY=0;exitDx=0;exitDy=0;entryX=0.5;entryY=1;entryDx=0;entryDy=0;" edge="1" parent="1" source="oHiZlL5Amw6MgKZXLNVU-208" target="70BZq5WN445ztoxM5un6-67">
          <mxGeometry relative="1" as="geometry" />
        </mxCell>
        <mxCell id="oHiZlL5Amw6MgKZXLNVU-176" style="edgeStyle=orthogonalEdgeStyle;rounded=0;orthogonalLoop=1;jettySize=auto;html=1;exitX=0.5;exitY=0;exitDx=0;exitDy=0;entryX=0.5;entryY=1;entryDx=0;entryDy=0;" edge="1" parent="1" source="oHiZlL5Amw6MgKZXLNVU-200" target="70BZq5WN445ztoxM5un6-70">
          <mxGeometry relative="1" as="geometry" />
        </mxCell>
        <mxCell id="oHiZlL5Amw6MgKZXLNVU-177" style="edgeStyle=orthogonalEdgeStyle;rounded=0;orthogonalLoop=1;jettySize=auto;html=1;exitX=0.5;exitY=0;exitDx=0;exitDy=0;entryX=0.5;entryY=1;entryDx=0;entryDy=0;" edge="1" parent="1" source="oHiZlL5Amw6MgKZXLNVU-198" target="70BZq5WN445ztoxM5un6-73">
          <mxGeometry relative="1" as="geometry" />
        </mxCell>
        <mxCell id="oHiZlL5Amw6MgKZXLNVU-178" style="edgeStyle=orthogonalEdgeStyle;rounded=0;orthogonalLoop=1;jettySize=auto;html=1;exitX=0.5;exitY=0;exitDx=0;exitDy=0;entryX=0.5;entryY=1;entryDx=0;entryDy=0;" edge="1" parent="1" source="70BZq5WN445ztoxM5un6-46" target="70BZq5WN445ztoxM5un6-74">
          <mxGeometry relative="1" as="geometry" />
        </mxCell>
        <mxCell id="oHiZlL5Amw6MgKZXLNVU-180" style="edgeStyle=orthogonalEdgeStyle;rounded=0;orthogonalLoop=1;jettySize=auto;html=1;exitX=0.5;exitY=0;exitDx=0;exitDy=0;entryX=0.5;entryY=1;entryDx=0;entryDy=0;" edge="1" parent="1" source="70BZq5WN445ztoxM5un6-46" target="70BZq5WN445ztoxM5un6-75">
          <mxGeometry relative="1" as="geometry" />
        </mxCell>
        <mxCell id="oHiZlL5Amw6MgKZXLNVU-181" style="edgeStyle=orthogonalEdgeStyle;rounded=0;orthogonalLoop=1;jettySize=auto;html=1;exitX=0.5;exitY=0;exitDx=0;exitDy=0;entryX=0.5;entryY=1;entryDx=0;entryDy=0;" edge="1" parent="1" source="70BZq5WN445ztoxM5un6-46" target="70BZq5WN445ztoxM5un6-76">
          <mxGeometry relative="1" as="geometry" />
        </mxCell>
        <mxCell id="oHiZlL5Amw6MgKZXLNVU-182" style="edgeStyle=orthogonalEdgeStyle;rounded=0;orthogonalLoop=1;jettySize=auto;html=1;exitX=0.5;exitY=0;exitDx=0;exitDy=0;entryX=0.5;entryY=1;entryDx=0;entryDy=0;" edge="1" parent="1" source="70BZq5WN445ztoxM5un6-46" target="70BZq5WN445ztoxM5un6-85">
          <mxGeometry relative="1" as="geometry" />
        </mxCell>
        <mxCell id="oHiZlL5Amw6MgKZXLNVU-183" style="edgeStyle=orthogonalEdgeStyle;rounded=0;orthogonalLoop=1;jettySize=auto;html=1;exitX=0.5;exitY=0;exitDx=0;exitDy=0;entryX=0.5;entryY=1;entryDx=0;entryDy=0;" edge="1" parent="1" source="70BZq5WN445ztoxM5un6-46" target="70BZq5WN445ztoxM5un6-88">
          <mxGeometry relative="1" as="geometry" />
        </mxCell>
        <mxCell id="oHiZlL5Amw6MgKZXLNVU-212" style="edgeStyle=orthogonalEdgeStyle;rounded=0;orthogonalLoop=1;jettySize=auto;html=1;exitX=0.5;exitY=0;exitDx=0;exitDy=0;entryX=0.5;entryY=1;entryDx=0;entryDy=0;" edge="1" parent="1" source="70BZq5WN445ztoxM5un6-46" target="70BZq5WN445ztoxM5un6-91">
          <mxGeometry relative="1" as="geometry" />
        </mxCell>
        <mxCell id="70BZq5WN445ztoxM5un6-46" value="SWITCH(c)" style="rhombus;whiteSpace=wrap;html=1;" parent="1" vertex="1">
          <mxGeometry x="1800" y="1320" width="80" height="80" as="geometry" />
        </mxCell>
        <mxCell id="70BZq5WN445ztoxM5un6-56" value="&quot;(&quot;/T(" style="text;html=1;align=center;verticalAlign=middle;whiteSpace=wrap;rounded=0;" parent="1" vertex="1">
          <mxGeometry x="1600" y="1220" width="40" height="40" as="geometry" />
        </mxCell>
        <mxCell id="70BZq5WN445ztoxM5un6-58" value="&quot;)&quot;/T)" style="text;html=1;align=center;verticalAlign=middle;whiteSpace=wrap;rounded=0;" parent="1" vertex="1">
          <mxGeometry x="1640" y="1220" width="40" height="40" as="geometry" />
        </mxCell>
        <mxCell id="70BZq5WN445ztoxM5un6-60" value="&quot;*&quot;/T*" style="text;html=1;align=center;verticalAlign=middle;whiteSpace=wrap;rounded=0;" parent="1" vertex="1">
          <mxGeometry x="1680" y="1220" width="40" height="40" as="geometry" />
        </mxCell>
        <mxCell id="70BZq5WN445ztoxM5un6-63" value="" style="ellipse;whiteSpace=wrap;html=1;aspect=fixed;" parent="1" vertex="1">
          <mxGeometry x="1630" y="1200" width="20" height="20" as="geometry" />
        </mxCell>
        <mxCell id="70BZq5WN445ztoxM5un6-65" value="" style="ellipse;whiteSpace=wrap;html=1;aspect=fixed;" parent="1" vertex="1">
          <mxGeometry x="1670" y="1200" width="20" height="20" as="geometry" />
        </mxCell>
        <mxCell id="70BZq5WN445ztoxM5un6-67" value="" style="ellipse;whiteSpace=wrap;html=1;aspect=fixed;" parent="1" vertex="1">
          <mxGeometry x="1710" y="1200" width="20" height="20" as="geometry" />
        </mxCell>
        <mxCell id="70BZq5WN445ztoxM5un6-70" value="" style="ellipse;whiteSpace=wrap;html=1;aspect=fixed;" parent="1" vertex="1">
          <mxGeometry x="1750" y="1200" width="20" height="20" as="geometry" />
        </mxCell>
        <mxCell id="70BZq5WN445ztoxM5un6-72" value="&quot;+&quot;/T+" style="text;html=1;align=center;verticalAlign=middle;whiteSpace=wrap;rounded=0;" parent="1" vertex="1">
          <mxGeometry x="1720" y="1220" width="40" height="40" as="geometry" />
        </mxCell>
        <mxCell id="70BZq5WN445ztoxM5un6-73" value="" style="ellipse;whiteSpace=wrap;html=1;aspect=fixed;" parent="1" vertex="1">
          <mxGeometry x="1790" y="1200" width="20" height="20" as="geometry" />
        </mxCell>
        <mxCell id="70BZq5WN445ztoxM5un6-74" value="" style="ellipse;whiteSpace=wrap;html=1;aspect=fixed;" parent="1" vertex="1">
          <mxGeometry x="1830" y="1200" width="20" height="20" as="geometry" />
        </mxCell>
        <mxCell id="70BZq5WN445ztoxM5un6-75" value="" style="ellipse;whiteSpace=wrap;html=1;aspect=fixed;" parent="1" vertex="1">
          <mxGeometry x="1870" y="1200" width="20" height="20" as="geometry" />
        </mxCell>
        <mxCell id="70BZq5WN445ztoxM5un6-76" value="" style="ellipse;whiteSpace=wrap;html=1;aspect=fixed;" parent="1" vertex="1">
          <mxGeometry x="1910" y="1200" width="20" height="20" as="geometry" />
        </mxCell>
        <mxCell id="70BZq5WN445ztoxM5un6-79" value="&quot;,&quot;/T," style="text;html=1;align=center;verticalAlign=middle;whiteSpace=wrap;rounded=0;" parent="1" vertex="1">
          <mxGeometry x="1760" y="1220" width="40" height="40" as="geometry" />
        </mxCell>
        <mxCell id="70BZq5WN445ztoxM5un6-80" value="&quot;-&quot;/T-" style="text;html=1;align=center;verticalAlign=middle;whiteSpace=wrap;rounded=0;" parent="1" vertex="1">
          <mxGeometry x="1800" y="1220" width="40" height="40" as="geometry" />
        </mxCell>
        <mxCell id="70BZq5WN445ztoxM5un6-83" value="&quot;:&quot;/T:" style="text;html=1;align=center;verticalAlign=middle;whiteSpace=wrap;rounded=0;" parent="1" vertex="1">
          <mxGeometry x="1840" y="1220" width="40" height="40" as="geometry" />
        </mxCell>
        <mxCell id="70BZq5WN445ztoxM5un6-84" value="&quot;;&quot;/T;" style="text;html=1;align=center;verticalAlign=middle;whiteSpace=wrap;rounded=0;" parent="1" vertex="1">
          <mxGeometry x="1880" y="1220" width="40" height="40" as="geometry" />
        </mxCell>
        <mxCell id="70BZq5WN445ztoxM5un6-85" value="" style="ellipse;whiteSpace=wrap;html=1;aspect=fixed;" parent="1" vertex="1">
          <mxGeometry x="1950" y="1200" width="20" height="20" as="geometry" />
        </mxCell>
        <mxCell id="70BZq5WN445ztoxM5un6-86" value="&quot;{&quot;/T{" style="text;html=1;align=center;verticalAlign=middle;whiteSpace=wrap;rounded=0;" parent="1" vertex="1">
          <mxGeometry x="1920" y="1220" width="40" height="40" as="geometry" />
        </mxCell>
        <mxCell id="70BZq5WN445ztoxM5un6-88" value="" style="ellipse;whiteSpace=wrap;html=1;aspect=fixed;" parent="1" vertex="1">
          <mxGeometry x="1990" y="1200" width="20" height="20" as="geometry" />
        </mxCell>
        <mxCell id="70BZq5WN445ztoxM5un6-90" value="&quot;|&quot;/T|" style="text;html=1;align=center;verticalAlign=middle;whiteSpace=wrap;rounded=0;" parent="1" vertex="1">
          <mxGeometry x="1960" y="1220" width="40" height="40" as="geometry" />
        </mxCell>
        <mxCell id="70BZq5WN445ztoxM5un6-91" value="" style="ellipse;whiteSpace=wrap;html=1;aspect=fixed;" parent="1" vertex="1">
          <mxGeometry x="2030" y="1200" width="20" height="20" as="geometry" />
        </mxCell>
        <mxCell id="70BZq5WN445ztoxM5un6-93" value="&quot;}&quot;/T}" style="text;html=1;align=center;verticalAlign=middle;whiteSpace=wrap;rounded=0;" parent="1" vertex="1">
          <mxGeometry x="2000" y="1220" width="40" height="40" as="geometry" />
        </mxCell>
        <mxCell id="70BZq5WN445ztoxM5un6-94" value="" style="curved=1;endArrow=classic;html=1;rounded=0;exitX=1;exitY=0.25;exitDx=0;exitDy=0;entryX=1;entryY=0.75;entryDx=0;entryDy=0;strokeColor=#000000;" parent="1" source="70BZq5WN445ztoxM5un6-4" target="70BZq5WN445ztoxM5un6-4" edge="1">
          <mxGeometry width="50" height="50" relative="1" as="geometry">
            <mxPoint x="400" y="1500" as="sourcePoint" />
            <mxPoint x="480" y="1500" as="targetPoint" />
            <Array as="points">
              <mxPoint x="560" y="1520" />
            </Array>
          </mxGeometry>
        </mxCell>
        <mxCell id="70BZq5WN445ztoxM5un6-95" value="LN/+" style="text;html=1;align=center;verticalAlign=middle;whiteSpace=wrap;rounded=0;" parent="1" vertex="1">
          <mxGeometry x="440" y="1500" width="40" height="40" as="geometry" />
        </mxCell>
        <mxCell id="70BZq5WN445ztoxM5un6-97" value="else/" style="text;html=1;align=center;verticalAlign=middle;whiteSpace=wrap;rounded=0;" parent="1" vertex="1">
          <mxGeometry x="199.99999999999972" y="1480" width="40" height="40" as="geometry" />
        </mxCell>
        <mxCell id="70BZq5WN445ztoxM5un6-98" value="LEXICAL ERROR" style="shape=hexagon;perimeter=hexagonPerimeter2;whiteSpace=wrap;html=1;fixedSize=1;fillColor=#FF9933;" parent="1" vertex="1">
          <mxGeometry x="80" y="1480" width="120" height="80" as="geometry" />
        </mxCell>
        <mxCell id="70BZq5WN445ztoxM5un6-99" value="" style="endArrow=classic;html=1;rounded=0;entryX=1;entryY=0.5;entryDx=0;entryDy=0;strokeColor=#000000;exitX=0;exitY=0.5;exitDx=0;exitDy=0;" parent="1" source="70BZq5WN445ztoxM5un6-4" target="70BZq5WN445ztoxM5un6-98" edge="1">
          <mxGeometry width="50" height="50" relative="1" as="geometry">
            <mxPoint x="190" y="1490" as="sourcePoint" />
            <mxPoint x="190" y="1330" as="targetPoint" />
          </mxGeometry>
        </mxCell>
        <mxCell id="oHiZlL5Amw6MgKZXLNVU-13" style="edgeStyle=orthogonalEdgeStyle;rounded=0;orthogonalLoop=1;jettySize=auto;html=1;exitX=0.5;exitY=0;exitDx=0;exitDy=0;entryX=0.5;entryY=1;entryDx=0;entryDy=0;" edge="1" parent="1" source="70BZq5WN445ztoxM5un6-100" target="70BZq5WN445ztoxM5un6-122">
          <mxGeometry relative="1" as="geometry" />
        </mxCell>
        <mxCell id="oHiZlL5Amw6MgKZXLNVU-14" style="edgeStyle=orthogonalEdgeStyle;rounded=0;orthogonalLoop=1;jettySize=auto;html=1;exitX=0.5;exitY=0;exitDx=0;exitDy=0;entryX=0.5;entryY=1;entryDx=0;entryDy=0;" edge="1" parent="1" source="70BZq5WN445ztoxM5un6-100" target="70BZq5WN445ztoxM5un6-123">
          <mxGeometry relative="1" as="geometry" />
        </mxCell>
        <mxCell id="oHiZlL5Amw6MgKZXLNVU-15" style="edgeStyle=orthogonalEdgeStyle;rounded=0;orthogonalLoop=1;jettySize=auto;html=1;exitX=0.5;exitY=0;exitDx=0;exitDy=0;entryX=0.5;entryY=1;entryDx=0;entryDy=0;" edge="1" parent="1" source="70BZq5WN445ztoxM5un6-100" target="70BZq5WN445ztoxM5un6-118">
          <mxGeometry relative="1" as="geometry" />
        </mxCell>
        <mxCell id="oHiZlL5Amw6MgKZXLNVU-16" style="edgeStyle=orthogonalEdgeStyle;rounded=0;orthogonalLoop=1;jettySize=auto;html=1;exitX=0.5;exitY=0;exitDx=0;exitDy=0;entryX=0.5;entryY=1;entryDx=0;entryDy=0;" edge="1" parent="1" source="70BZq5WN445ztoxM5un6-100" target="70BZq5WN445ztoxM5un6-119">
          <mxGeometry relative="1" as="geometry" />
        </mxCell>
        <mxCell id="oHiZlL5Amw6MgKZXLNVU-17" style="edgeStyle=orthogonalEdgeStyle;rounded=0;orthogonalLoop=1;jettySize=auto;html=1;exitX=0.5;exitY=0;exitDx=0;exitDy=0;entryX=0.5;entryY=1;entryDx=0;entryDy=0;" edge="1" parent="1" source="70BZq5WN445ztoxM5un6-100" target="70BZq5WN445ztoxM5un6-106">
          <mxGeometry relative="1" as="geometry" />
        </mxCell>
        <mxCell id="oHiZlL5Amw6MgKZXLNVU-18" style="edgeStyle=orthogonalEdgeStyle;rounded=0;orthogonalLoop=1;jettySize=auto;html=1;exitX=0.5;exitY=0;exitDx=0;exitDy=0;entryX=0.5;entryY=1;entryDx=0;entryDy=0;" edge="1" parent="1" source="70BZq5WN445ztoxM5un6-100" target="70BZq5WN445ztoxM5un6-107">
          <mxGeometry relative="1" as="geometry" />
        </mxCell>
        <mxCell id="oHiZlL5Amw6MgKZXLNVU-19" style="edgeStyle=orthogonalEdgeStyle;rounded=0;orthogonalLoop=1;jettySize=auto;html=1;exitX=0.5;exitY=0;exitDx=0;exitDy=0;entryX=0.5;entryY=1;entryDx=0;entryDy=0;" edge="1" parent="1" source="70BZq5WN445ztoxM5un6-100" target="70BZq5WN445ztoxM5un6-108">
          <mxGeometry relative="1" as="geometry" />
        </mxCell>
        <mxCell id="oHiZlL5Amw6MgKZXLNVU-20" style="edgeStyle=orthogonalEdgeStyle;rounded=0;orthogonalLoop=1;jettySize=auto;html=1;exitX=0.5;exitY=0;exitDx=0;exitDy=0;entryX=0.5;entryY=1;entryDx=0;entryDy=0;" edge="1" parent="1" source="oHiZlL5Amw6MgKZXLNVU-77" target="70BZq5WN445ztoxM5un6-109">
          <mxGeometry relative="1" as="geometry" />
        </mxCell>
        <mxCell id="oHiZlL5Amw6MgKZXLNVU-21" style="edgeStyle=orthogonalEdgeStyle;rounded=0;orthogonalLoop=1;jettySize=auto;html=1;exitX=0.5;exitY=0;exitDx=0;exitDy=0;entryX=0.5;entryY=1;entryDx=0;entryDy=0;" edge="1" parent="1" source="70BZq5WN445ztoxM5un6-100" target="70BZq5WN445ztoxM5un6-110">
          <mxGeometry relative="1" as="geometry" />
        </mxCell>
        <mxCell id="oHiZlL5Amw6MgKZXLNVU-22" style="edgeStyle=orthogonalEdgeStyle;rounded=0;orthogonalLoop=1;jettySize=auto;html=1;exitX=0.5;exitY=0;exitDx=0;exitDy=0;entryX=0.5;entryY=1;entryDx=0;entryDy=0;" edge="1" parent="1" source="70BZq5WN445ztoxM5un6-100" target="70BZq5WN445ztoxM5un6-111">
          <mxGeometry relative="1" as="geometry" />
        </mxCell>
        <mxCell id="oHiZlL5Amw6MgKZXLNVU-23" style="edgeStyle=orthogonalEdgeStyle;rounded=0;orthogonalLoop=1;jettySize=auto;html=1;exitX=0.5;exitY=0;exitDx=0;exitDy=0;entryX=0.5;entryY=1;entryDx=0;entryDy=0;" edge="1" parent="1" source="70BZq5WN445ztoxM5un6-100" target="70BZq5WN445ztoxM5un6-112">
          <mxGeometry relative="1" as="geometry" />
        </mxCell>
        <mxCell id="oHiZlL5Amw6MgKZXLNVU-24" style="edgeStyle=orthogonalEdgeStyle;rounded=0;orthogonalLoop=1;jettySize=auto;html=1;exitX=0.5;exitY=0;exitDx=0;exitDy=0;entryX=0.5;entryY=1;entryDx=0;entryDy=0;" edge="1" parent="1" source="70BZq5WN445ztoxM5un6-100" target="70BZq5WN445ztoxM5un6-113">
          <mxGeometry relative="1" as="geometry" />
        </mxCell>
        <mxCell id="oHiZlL5Amw6MgKZXLNVU-25" style="edgeStyle=orthogonalEdgeStyle;rounded=0;orthogonalLoop=1;jettySize=auto;html=1;exitX=0.5;exitY=0;exitDx=0;exitDy=0;entryX=0.5;entryY=1;entryDx=0;entryDy=0;" edge="1" parent="1" source="70BZq5WN445ztoxM5un6-100" target="70BZq5WN445ztoxM5un6-116">
          <mxGeometry relative="1" as="geometry" />
        </mxCell>
        <mxCell id="oHiZlL5Amw6MgKZXLNVU-26" style="edgeStyle=orthogonalEdgeStyle;rounded=0;orthogonalLoop=1;jettySize=auto;html=1;exitX=0.5;exitY=0;exitDx=0;exitDy=0;entryX=0.5;entryY=1;entryDx=0;entryDy=0;" edge="1" parent="1" source="70BZq5WN445ztoxM5un6-100" target="70BZq5WN445ztoxM5un6-117">
          <mxGeometry relative="1" as="geometry" />
        </mxCell>
        <mxCell id="oHiZlL5Amw6MgKZXLNVU-27" style="edgeStyle=orthogonalEdgeStyle;rounded=0;orthogonalLoop=1;jettySize=auto;html=1;exitX=0.5;exitY=0;exitDx=0;exitDy=0;entryX=0.5;entryY=1;entryDx=0;entryDy=0;" edge="1" parent="1" source="70BZq5WN445ztoxM5un6-100" target="oHiZlL5Amw6MgKZXLNVU-1">
          <mxGeometry relative="1" as="geometry" />
        </mxCell>
        <mxCell id="70BZq5WN445ztoxM5un6-100" value="SWITCH(str)" style="rhombus;whiteSpace=wrap;html=1;" parent="1" vertex="1">
          <mxGeometry x="280" y="1320" width="80" height="80" as="geometry" />
        </mxCell>
        <mxCell id="70BZq5WN445ztoxM5un6-103" value="W/" style="text;html=1;align=center;verticalAlign=middle;whiteSpace=wrap;rounded=0;" parent="1" vertex="1">
          <mxGeometry x="280" y="1400" width="40" height="40" as="geometry" />
        </mxCell>
        <mxCell id="70BZq5WN445ztoxM5un6-104" value="SCE/-" style="text;html=1;align=center;verticalAlign=middle;whiteSpace=wrap;rounded=0;" parent="1" vertex="1">
          <mxGeometry x="320" y="1400" width="40" height="40" as="geometry" />
        </mxCell>
        <mxCell id="70BZq5WN445ztoxM5un6-106" value="" style="ellipse;whiteSpace=wrap;html=1;aspect=fixed;" parent="1" vertex="1">
          <mxGeometry x="190" y="1200" width="20" height="20" as="geometry" />
        </mxCell>
        <mxCell id="70BZq5WN445ztoxM5un6-107" value="" style="ellipse;whiteSpace=wrap;html=1;aspect=fixed;" parent="1" vertex="1">
          <mxGeometry x="230" y="1200" width="20" height="20" as="geometry" />
        </mxCell>
        <mxCell id="70BZq5WN445ztoxM5un6-108" value="" style="ellipse;whiteSpace=wrap;html=1;aspect=fixed;" parent="1" vertex="1">
          <mxGeometry x="270" y="1200" width="20" height="20" as="geometry" />
        </mxCell>
        <mxCell id="70BZq5WN445ztoxM5un6-109" value="" style="ellipse;whiteSpace=wrap;html=1;aspect=fixed;" parent="1" vertex="1">
          <mxGeometry x="310" y="1200" width="20" height="20" as="geometry" />
        </mxCell>
        <mxCell id="70BZq5WN445ztoxM5un6-110" value="" style="ellipse;whiteSpace=wrap;html=1;aspect=fixed;" parent="1" vertex="1">
          <mxGeometry x="350" y="1200" width="20" height="20" as="geometry" />
        </mxCell>
        <mxCell id="70BZq5WN445ztoxM5un6-111" value="" style="ellipse;whiteSpace=wrap;html=1;aspect=fixed;" parent="1" vertex="1">
          <mxGeometry x="390" y="1200" width="20" height="20" as="geometry" />
        </mxCell>
        <mxCell id="70BZq5WN445ztoxM5un6-112" value="" style="ellipse;whiteSpace=wrap;html=1;aspect=fixed;" parent="1" vertex="1">
          <mxGeometry x="430" y="1200" width="20" height="20" as="geometry" />
        </mxCell>
        <mxCell id="70BZq5WN445ztoxM5un6-113" value="" style="ellipse;whiteSpace=wrap;html=1;aspect=fixed;" parent="1" vertex="1">
          <mxGeometry x="470" y="1200" width="20" height="20" as="geometry" />
        </mxCell>
        <mxCell id="70BZq5WN445ztoxM5un6-116" value="" style="ellipse;whiteSpace=wrap;html=1;aspect=fixed;" parent="1" vertex="1">
          <mxGeometry x="510" y="1200" width="20" height="20" as="geometry" />
        </mxCell>
        <mxCell id="70BZq5WN445ztoxM5un6-117" value="" style="ellipse;whiteSpace=wrap;html=1;aspect=fixed;" parent="1" vertex="1">
          <mxGeometry x="550" y="1200" width="20" height="20" as="geometry" />
        </mxCell>
        <mxCell id="70BZq5WN445ztoxM5un6-118" value="" style="ellipse;whiteSpace=wrap;html=1;aspect=fixed;" parent="1" vertex="1">
          <mxGeometry x="110" y="1200" width="20" height="20" as="geometry" />
        </mxCell>
        <mxCell id="70BZq5WN445ztoxM5un6-119" value="" style="ellipse;whiteSpace=wrap;html=1;aspect=fixed;" parent="1" vertex="1">
          <mxGeometry x="150" y="1200" width="20" height="20" as="geometry" />
        </mxCell>
        <mxCell id="70BZq5WN445ztoxM5un6-122" value="" style="ellipse;whiteSpace=wrap;html=1;aspect=fixed;" parent="1" vertex="1">
          <mxGeometry x="30" y="1200" width="20" height="20" as="geometry" />
        </mxCell>
        <mxCell id="70BZq5WN445ztoxM5un6-123" value="" style="ellipse;whiteSpace=wrap;html=1;aspect=fixed;" parent="1" vertex="1">
          <mxGeometry x="70" y="1200" width="20" height="20" as="geometry" />
        </mxCell>
        <mxCell id="70BZq5WN445ztoxM5un6-145" value="&quot;const&quot;/" style="text;html=1;align=center;verticalAlign=middle;whiteSpace=wrap;rounded=0;" parent="1" vertex="1">
          <mxGeometry y="1220" width="40" height="20" as="geometry" />
        </mxCell>
        <mxCell id="70BZq5WN445ztoxM5un6-146" value="Tconst" style="text;html=1;align=center;verticalAlign=middle;whiteSpace=wrap;rounded=0;" parent="1" vertex="1">
          <mxGeometry y="1240" width="40" height="20" as="geometry" />
        </mxCell>
        <mxCell id="70BZq5WN445ztoxM5un6-147" value="&quot;var&quot;/" style="text;html=1;align=center;verticalAlign=middle;whiteSpace=wrap;rounded=0;" parent="1" vertex="1">
          <mxGeometry x="40" y="1220" width="40" height="20" as="geometry" />
        </mxCell>
        <mxCell id="70BZq5WN445ztoxM5un6-148" value="Tvar" style="text;html=1;align=center;verticalAlign=middle;whiteSpace=wrap;rounded=0;" parent="1" vertex="1">
          <mxGeometry x="40" y="1240" width="40" height="20" as="geometry" />
        </mxCell>
        <mxCell id="70BZq5WN445ztoxM5un6-149" value="&quot;i32&quot;/" style="text;html=1;align=center;verticalAlign=middle;whiteSpace=wrap;rounded=0;" parent="1" vertex="1">
          <mxGeometry x="80" y="1220" width="40" height="20" as="geometry" />
        </mxCell>
        <mxCell id="70BZq5WN445ztoxM5un6-150" value="Ti32" style="text;html=1;align=center;verticalAlign=middle;whiteSpace=wrap;rounded=0;" parent="1" vertex="1">
          <mxGeometry x="80" y="1240" width="40" height="20" as="geometry" />
        </mxCell>
        <mxCell id="70BZq5WN445ztoxM5un6-151" value="&quot;f64&quot;/" style="text;html=1;align=center;verticalAlign=middle;whiteSpace=wrap;rounded=0;" parent="1" vertex="1">
          <mxGeometry x="120" y="1220" width="40" height="20" as="geometry" />
        </mxCell>
        <mxCell id="70BZq5WN445ztoxM5un6-152" value="Tf64" style="text;html=1;align=center;verticalAlign=middle;whiteSpace=wrap;rounded=0;" parent="1" vertex="1">
          <mxGeometry x="120" y="1240" width="40" height="20" as="geometry" />
        </mxCell>
        <mxCell id="70BZq5WN445ztoxM5un6-153" value="&quot;pub&quot;/" style="text;html=1;align=center;verticalAlign=middle;whiteSpace=wrap;rounded=0;" parent="1" vertex="1">
          <mxGeometry x="160" y="1220" width="40" height="20" as="geometry" />
        </mxCell>
        <mxCell id="70BZq5WN445ztoxM5un6-154" value="Tpub" style="text;html=1;align=center;verticalAlign=middle;whiteSpace=wrap;rounded=0;" parent="1" vertex="1">
          <mxGeometry x="160" y="1240" width="40" height="20" as="geometry" />
        </mxCell>
        <mxCell id="70BZq5WN445ztoxM5un6-155" value="&quot;fn&quot;/" style="text;html=1;align=center;verticalAlign=middle;whiteSpace=wrap;rounded=0;" parent="1" vertex="1">
          <mxGeometry x="200" y="1220" width="40" height="20" as="geometry" />
        </mxCell>
        <mxCell id="70BZq5WN445ztoxM5un6-156" value="Tfn" style="text;html=1;align=center;verticalAlign=middle;whiteSpace=wrap;rounded=0;" parent="1" vertex="1">
          <mxGeometry x="200" y="1240" width="40" height="20" as="geometry" />
        </mxCell>
        <mxCell id="70BZq5WN445ztoxM5un6-157" value="&quot;void&quot;/" style="text;html=1;align=center;verticalAlign=middle;whiteSpace=wrap;rounded=0;" parent="1" vertex="1">
          <mxGeometry x="240" y="1220" width="40" height="20" as="geometry" />
        </mxCell>
        <mxCell id="70BZq5WN445ztoxM5un6-158" value="Tvoid" style="text;html=1;align=center;verticalAlign=middle;whiteSpace=wrap;rounded=0;" parent="1" vertex="1">
          <mxGeometry x="240" y="1240" width="40" height="20" as="geometry" />
        </mxCell>
        <mxCell id="70BZq5WN445ztoxM5un6-159" value="&quot;return&quot;/" style="text;html=1;align=center;verticalAlign=middle;whiteSpace=wrap;rounded=0;" parent="1" vertex="1">
          <mxGeometry x="280" y="1220" width="40" height="20" as="geometry" />
        </mxCell>
        <mxCell id="70BZq5WN445ztoxM5un6-160" value="Treturn" style="text;html=1;align=center;verticalAlign=middle;whiteSpace=wrap;rounded=0;" parent="1" vertex="1">
          <mxGeometry x="280" y="1240" width="40" height="20" as="geometry" />
        </mxCell>
        <mxCell id="70BZq5WN445ztoxM5un6-161" value="&quot;null&quot;/" style="text;html=1;align=center;verticalAlign=middle;whiteSpace=wrap;rounded=0;" parent="1" vertex="1">
          <mxGeometry x="320" y="1220" width="40" height="20" as="geometry" />
        </mxCell>
        <mxCell id="70BZq5WN445ztoxM5un6-162" value="Tnull" style="text;html=1;align=center;verticalAlign=middle;whiteSpace=wrap;rounded=0;" parent="1" vertex="1">
          <mxGeometry x="320" y="1240" width="40" height="20" as="geometry" />
        </mxCell>
        <mxCell id="70BZq5WN445ztoxM5un6-163" value="&quot;if&quot;/" style="text;html=1;align=center;verticalAlign=middle;whiteSpace=wrap;rounded=0;" parent="1" vertex="1">
          <mxGeometry x="360" y="1220" width="40" height="20" as="geometry" />
        </mxCell>
        <mxCell id="70BZq5WN445ztoxM5un6-164" value="Tif" style="text;html=1;align=center;verticalAlign=middle;whiteSpace=wrap;rounded=0;" parent="1" vertex="1">
          <mxGeometry x="360" y="1240" width="40" height="20" as="geometry" />
        </mxCell>
        <mxCell id="70BZq5WN445ztoxM5un6-165" value="&quot;else&quot;/" style="text;html=1;align=center;verticalAlign=middle;whiteSpace=wrap;rounded=0;" parent="1" vertex="1">
          <mxGeometry x="400" y="1220" width="40" height="20" as="geometry" />
        </mxCell>
        <mxCell id="70BZq5WN445ztoxM5un6-166" value="Telse" style="text;html=1;align=center;verticalAlign=middle;whiteSpace=wrap;rounded=0;" parent="1" vertex="1">
          <mxGeometry x="400" y="1240" width="40" height="20" as="geometry" />
        </mxCell>
        <mxCell id="70BZq5WN445ztoxM5un6-167" value="&quot;while&quot;/" style="text;html=1;align=center;verticalAlign=middle;whiteSpace=wrap;rounded=0;" parent="1" vertex="1">
          <mxGeometry x="440" y="1220" width="40" height="20" as="geometry" />
        </mxCell>
        <mxCell id="70BZq5WN445ztoxM5un6-168" value="Twhile" style="text;html=1;align=center;verticalAlign=middle;whiteSpace=wrap;rounded=0;" parent="1" vertex="1">
          <mxGeometry x="440" y="1240" width="40" height="20" as="geometry" />
        </mxCell>
        <mxCell id="70BZq5WN445ztoxM5un6-169" value="&quot;_&quot;/" style="text;html=1;align=center;verticalAlign=middle;whiteSpace=wrap;rounded=0;" parent="1" vertex="1">
          <mxGeometry x="480" y="1220" width="40" height="20" as="geometry" />
        </mxCell>
        <mxCell id="70BZq5WN445ztoxM5un6-170" value="T_" style="text;html=1;align=center;verticalAlign=middle;whiteSpace=wrap;rounded=0;" parent="1" vertex="1">
          <mxGeometry x="480" y="1240" width="40" height="20" as="geometry" />
        </mxCell>
        <mxCell id="70BZq5WN445ztoxM5un6-171" value="else/" style="text;html=1;align=center;verticalAlign=middle;whiteSpace=wrap;rounded=0;" parent="1" vertex="1">
          <mxGeometry x="560" y="1220" width="40" height="20" as="geometry" />
        </mxCell>
        <mxCell id="70BZq5WN445ztoxM5un6-172" value="TID" style="text;html=1;align=center;verticalAlign=middle;whiteSpace=wrap;rounded=0;" parent="1" vertex="1">
          <mxGeometry x="560" y="1240" width="40" height="20" as="geometry" />
        </mxCell>
        <mxCell id="70BZq5WN445ztoxM5un6-419" value="&quot;[&quot;/" style="text;html=1;align=center;verticalAlign=middle;whiteSpace=wrap;rounded=0;" parent="1" vertex="1">
          <mxGeometry x="1600" y="360" width="40" height="40" as="geometry" />
        </mxCell>
        <mxCell id="70BZq5WN445ztoxM5un6-433" value="LEXICAL ERROR" style="shape=hexagon;perimeter=hexagonPerimeter2;whiteSpace=wrap;html=1;fixedSize=1;fillColor=#FF9933;" parent="1" vertex="1">
          <mxGeometry x="1720" y="240" width="80" height="40" as="geometry" />
        </mxCell>
        <mxCell id="oHiZlL5Amw6MgKZXLNVU-1" value="" style="ellipse;whiteSpace=wrap;html=1;aspect=fixed;" vertex="1" parent="1">
          <mxGeometry x="590" y="1200" width="20" height="20" as="geometry" />
        </mxCell>
        <mxCell id="oHiZlL5Amw6MgKZXLNVU-3" value="&quot;ifj&quot;/" style="text;html=1;align=center;verticalAlign=middle;whiteSpace=wrap;rounded=0;" vertex="1" parent="1">
          <mxGeometry x="520" y="1220" width="40" height="20" as="geometry" />
        </mxCell>
        <mxCell id="oHiZlL5Amw6MgKZXLNVU-4" value="Tifj" style="text;html=1;align=center;verticalAlign=middle;whiteSpace=wrap;rounded=0;" vertex="1" parent="1">
          <mxGeometry x="520" y="1240" width="40" height="20" as="geometry" />
        </mxCell>
        <mxCell id="oHiZlL5Amw6MgKZXLNVU-7" value="Send Token to Parser" style="rounded=1;whiteSpace=wrap;html=1;strokeColor=#000000;" vertex="1" parent="1">
          <mxGeometry y="1120" width="640" height="80" as="geometry" />
        </mxCell>
        <mxCell id="oHiZlL5Amw6MgKZXLNVU-28" value="Start" style="rounded=1;whiteSpace=wrap;html=1;" vertex="1" parent="1">
          <mxGeometry x="1000" y="1720" width="240" height="80" as="geometry" />
        </mxCell>
        <mxCell id="oHiZlL5Amw6MgKZXLNVU-46" style="edgeStyle=orthogonalEdgeStyle;rounded=0;orthogonalLoop=1;jettySize=auto;html=1;exitX=0.5;exitY=0;exitDx=0;exitDy=0;entryX=0.5;entryY=1;entryDx=0;entryDy=0;" edge="1" parent="1" source="oHiZlL5Amw6MgKZXLNVU-29" target="oHiZlL5Amw6MgKZXLNVU-45">
          <mxGeometry relative="1" as="geometry" />
        </mxCell>
        <mxCell id="oHiZlL5Amw6MgKZXLNVU-59" style="edgeStyle=orthogonalEdgeStyle;rounded=0;orthogonalLoop=1;jettySize=auto;html=1;exitX=0.5;exitY=0;exitDx=0;exitDy=0;entryX=0.5;entryY=1;entryDx=0;entryDy=0;" edge="1" parent="1" source="oHiZlL5Amw6MgKZXLNVU-98" target="oHiZlL5Amw6MgKZXLNVU-53">
          <mxGeometry relative="1" as="geometry" />
        </mxCell>
        <mxCell id="oHiZlL5Amw6MgKZXLNVU-67" style="edgeStyle=orthogonalEdgeStyle;rounded=0;orthogonalLoop=1;jettySize=auto;html=1;exitX=0;exitY=0.5;exitDx=0;exitDy=0;entryX=1;entryY=0.5;entryDx=0;entryDy=0;" edge="1" parent="1" source="oHiZlL5Amw6MgKZXLNVU-29" target="oHiZlL5Amw6MgKZXLNVU-66">
          <mxGeometry relative="1" as="geometry" />
        </mxCell>
        <mxCell id="oHiZlL5Amw6MgKZXLNVU-97" style="edgeStyle=orthogonalEdgeStyle;rounded=0;orthogonalLoop=1;jettySize=auto;html=1;exitX=0.5;exitY=0;exitDx=0;exitDy=0;entryX=0.5;entryY=1;entryDx=0;entryDy=0;" edge="1" parent="1" source="oHiZlL5Amw6MgKZXLNVU-29" target="oHiZlL5Amw6MgKZXLNVU-32">
          <mxGeometry relative="1" as="geometry" />
        </mxCell>
        <mxCell id="oHiZlL5Amw6MgKZXLNVU-145" style="edgeStyle=orthogonalEdgeStyle;rounded=0;orthogonalLoop=1;jettySize=auto;html=1;exitX=0.5;exitY=0;exitDx=0;exitDy=0;entryX=0.5;entryY=1;entryDx=0;entryDy=0;" edge="1" parent="1" source="oHiZlL5Amw6MgKZXLNVU-29" target="oHiZlL5Amw6MgKZXLNVU-52">
          <mxGeometry relative="1" as="geometry">
            <Array as="points">
              <mxPoint x="1120" y="880" />
              <mxPoint x="1080" y="880" />
            </Array>
          </mxGeometry>
        </mxCell>
        <mxCell id="oHiZlL5Amw6MgKZXLNVU-29" value="State: NUMBERS" style="rounded=1;whiteSpace=wrap;html=1;strokeColor=#00CC00;" vertex="1" parent="1">
          <mxGeometry x="1040" y="1440" width="160" height="160" as="geometry" />
        </mxCell>
        <mxCell id="oHiZlL5Amw6MgKZXLNVU-30" value="" style="endArrow=classic;html=1;rounded=0;entryX=0.5;entryY=1;entryDx=0;entryDy=0;exitX=0.5;exitY=0;exitDx=0;exitDy=0;strokeColor=#00CC00;" edge="1" parent="1" source="oHiZlL5Amw6MgKZXLNVU-28" target="oHiZlL5Amw6MgKZXLNVU-29">
          <mxGeometry width="50" height="50" relative="1" as="geometry">
            <mxPoint x="1230" y="1700" as="sourcePoint" />
            <mxPoint x="1230" y="1540" as="targetPoint" />
          </mxGeometry>
        </mxCell>
        <mxCell id="oHiZlL5Amw6MgKZXLNVU-101" style="edgeStyle=orthogonalEdgeStyle;rounded=0;orthogonalLoop=1;jettySize=auto;html=1;exitX=0.5;exitY=0;exitDx=0;exitDy=0;entryX=0.5;entryY=1;entryDx=0;entryDy=0;" edge="1" parent="1" source="oHiZlL5Amw6MgKZXLNVU-31" target="oHiZlL5Amw6MgKZXLNVU-99">
          <mxGeometry relative="1" as="geometry" />
        </mxCell>
        <mxCell id="oHiZlL5Amw6MgKZXLNVU-113" style="edgeStyle=orthogonalEdgeStyle;rounded=0;orthogonalLoop=1;jettySize=auto;html=1;exitX=0.75;exitY=0;exitDx=0;exitDy=0;entryX=0.75;entryY=1;entryDx=0;entryDy=0;" edge="1" parent="1" source="oHiZlL5Amw6MgKZXLNVU-31" target="oHiZlL5Amw6MgKZXLNVU-106">
          <mxGeometry relative="1" as="geometry">
            <Array as="points">
              <mxPoint x="1000" y="1080" />
              <mxPoint x="1020" y="1080" />
              <mxPoint x="1020" y="1000" />
              <mxPoint x="1000" y="1000" />
            </Array>
          </mxGeometry>
        </mxCell>
        <mxCell id="oHiZlL5Amw6MgKZXLNVU-116" style="edgeStyle=orthogonalEdgeStyle;rounded=0;orthogonalLoop=1;jettySize=auto;html=1;exitX=0;exitY=0.5;exitDx=0;exitDy=0;entryX=1;entryY=0.5;entryDx=0;entryDy=0;" edge="1" parent="1" source="oHiZlL5Amw6MgKZXLNVU-31" target="oHiZlL5Amw6MgKZXLNVU-115">
          <mxGeometry relative="1" as="geometry" />
        </mxCell>
        <mxCell id="oHiZlL5Amw6MgKZXLNVU-31" value="State: FLOAT EXP" style="rounded=1;whiteSpace=wrap;html=1;strokeColor=#00CC00;" vertex="1" parent="1">
          <mxGeometry x="880" y="1120" width="160" height="80" as="geometry" />
        </mxCell>
        <mxCell id="oHiZlL5Amw6MgKZXLNVU-41" style="edgeStyle=orthogonalEdgeStyle;rounded=0;orthogonalLoop=1;jettySize=auto;html=1;exitX=0;exitY=0.5;exitDx=0;exitDy=0;entryX=1;entryY=0.5;entryDx=0;entryDy=0;" edge="1" parent="1" source="oHiZlL5Amw6MgKZXLNVU-32" target="oHiZlL5Amw6MgKZXLNVU-40">
          <mxGeometry relative="1" as="geometry" />
        </mxCell>
        <mxCell id="oHiZlL5Amw6MgKZXLNVU-43" style="edgeStyle=orthogonalEdgeStyle;rounded=0;orthogonalLoop=1;jettySize=auto;html=1;exitX=0.5;exitY=0;exitDx=0;exitDy=0;entryX=0.5;entryY=1;entryDx=0;entryDy=0;" edge="1" parent="1" source="oHiZlL5Amw6MgKZXLNVU-32" target="oHiZlL5Amw6MgKZXLNVU-31">
          <mxGeometry relative="1" as="geometry" />
        </mxCell>
        <mxCell id="oHiZlL5Amw6MgKZXLNVU-32" value="SWITCH(c)" style="rhombus;whiteSpace=wrap;html=1;" vertex="1" parent="1">
          <mxGeometry x="920" y="1280" width="80" height="80" as="geometry" />
        </mxCell>
        <mxCell id="oHiZlL5Amw6MgKZXLNVU-33" value="" style="curved=1;endArrow=classic;html=1;rounded=0;exitX=1;exitY=0.25;exitDx=0;exitDy=0;entryX=1;entryY=0.75;entryDx=0;entryDy=0;strokeColor=#00CC00;" edge="1" parent="1">
          <mxGeometry width="50" height="50" relative="1" as="geometry">
            <mxPoint x="1200" y="1480" as="sourcePoint" />
            <mxPoint x="1200" y="1560" as="targetPoint" />
            <Array as="points">
              <mxPoint x="1360" y="1520" />
            </Array>
          </mxGeometry>
        </mxCell>
        <mxCell id="oHiZlL5Amw6MgKZXLNVU-34" value="N/+" style="text;html=1;align=center;verticalAlign=middle;whiteSpace=wrap;rounded=0;" vertex="1" parent="1">
          <mxGeometry x="1240" y="1500" width="40" height="40" as="geometry" />
        </mxCell>
        <mxCell id="oHiZlL5Amw6MgKZXLNVU-38" value="L/" style="text;html=1;align=center;verticalAlign=middle;whiteSpace=wrap;rounded=0;" vertex="1" parent="1">
          <mxGeometry x="919.9999999999998" y="1360" width="40" height="40" as="geometry" />
        </mxCell>
        <mxCell id="oHiZlL5Amw6MgKZXLNVU-40" value="LEXICAL ERROR" style="shape=hexagon;perimeter=hexagonPerimeter2;whiteSpace=wrap;html=1;fixedSize=1;fillColor=#FF9933;" vertex="1" parent="1">
          <mxGeometry x="760" y="1280" width="120" height="80" as="geometry" />
        </mxCell>
        <mxCell id="oHiZlL5Amw6MgKZXLNVU-42" value="else/" style="text;html=1;align=center;verticalAlign=middle;whiteSpace=wrap;rounded=0;" vertex="1" parent="1">
          <mxGeometry x="879.9999999999998" y="1280" width="40" height="40" as="geometry" />
        </mxCell>
        <mxCell id="oHiZlL5Amw6MgKZXLNVU-44" value="&quot;e&quot;/+" style="text;html=1;align=center;verticalAlign=middle;whiteSpace=wrap;rounded=0;" vertex="1" parent="1">
          <mxGeometry x="919.9999999999998" y="1240" width="40" height="40" as="geometry" />
        </mxCell>
        <mxCell id="oHiZlL5Amw6MgKZXLNVU-49" style="edgeStyle=orthogonalEdgeStyle;rounded=0;orthogonalLoop=1;jettySize=auto;html=1;exitX=0.5;exitY=0;exitDx=0;exitDy=0;entryX=0.5;entryY=1;entryDx=0;entryDy=0;" edge="1" parent="1" source="oHiZlL5Amw6MgKZXLNVU-45" target="oHiZlL5Amw6MgKZXLNVU-48">
          <mxGeometry relative="1" as="geometry" />
        </mxCell>
        <mxCell id="oHiZlL5Amw6MgKZXLNVU-56" style="edgeStyle=orthogonalEdgeStyle;rounded=0;orthogonalLoop=1;jettySize=auto;html=1;exitX=0;exitY=0.5;exitDx=0;exitDy=0;entryX=0.5;entryY=1;entryDx=0;entryDy=0;" edge="1" parent="1" source="oHiZlL5Amw6MgKZXLNVU-45" target="oHiZlL5Amw6MgKZXLNVU-54">
          <mxGeometry relative="1" as="geometry" />
        </mxCell>
        <mxCell id="oHiZlL5Amw6MgKZXLNVU-122" style="edgeStyle=orthogonalEdgeStyle;rounded=0;orthogonalLoop=1;jettySize=auto;html=1;exitX=1;exitY=0.5;exitDx=0;exitDy=0;entryX=0;entryY=0.5;entryDx=0;entryDy=0;" edge="1" parent="1" source="oHiZlL5Amw6MgKZXLNVU-45" target="oHiZlL5Amw6MgKZXLNVU-121">
          <mxGeometry relative="1" as="geometry" />
        </mxCell>
        <mxCell id="oHiZlL5Amw6MgKZXLNVU-45" value="SWITCH(c)" style="rhombus;whiteSpace=wrap;html=1;" vertex="1" parent="1">
          <mxGeometry x="1240" y="1280" width="80" height="80" as="geometry" />
        </mxCell>
        <mxCell id="oHiZlL5Amw6MgKZXLNVU-47" value="C/" style="text;html=1;align=center;verticalAlign=middle;whiteSpace=wrap;rounded=0;" vertex="1" parent="1">
          <mxGeometry x="1280" y="1360" width="40" height="40" as="geometry" />
        </mxCell>
        <mxCell id="oHiZlL5Amw6MgKZXLNVU-70" style="edgeStyle=orthogonalEdgeStyle;rounded=0;orthogonalLoop=1;jettySize=auto;html=1;exitX=1;exitY=0.5;exitDx=0;exitDy=0;entryX=0;entryY=0.5;entryDx=0;entryDy=0;" edge="1" parent="1" source="oHiZlL5Amw6MgKZXLNVU-48" target="oHiZlL5Amw6MgKZXLNVU-69">
          <mxGeometry relative="1" as="geometry" />
        </mxCell>
        <mxCell id="oHiZlL5Amw6MgKZXLNVU-72" style="edgeStyle=orthogonalEdgeStyle;rounded=0;orthogonalLoop=1;jettySize=auto;html=1;exitX=0.5;exitY=0;exitDx=0;exitDy=0;entryX=0.5;entryY=1;entryDx=0;entryDy=0;" edge="1" parent="1" source="oHiZlL5Amw6MgKZXLNVU-48" target="oHiZlL5Amw6MgKZXLNVU-71">
          <mxGeometry relative="1" as="geometry" />
        </mxCell>
        <mxCell id="oHiZlL5Amw6MgKZXLNVU-48" value="State: FLOAT PERIOD" style="rounded=1;whiteSpace=wrap;html=1;strokeColor=#00CC00;" vertex="1" parent="1">
          <mxGeometry x="1200" y="1120" width="160" height="80" as="geometry" />
        </mxCell>
        <mxCell id="oHiZlL5Amw6MgKZXLNVU-50" value="&quot;.&quot;/+" style="text;html=1;align=center;verticalAlign=middle;whiteSpace=wrap;rounded=0;" vertex="1" parent="1">
          <mxGeometry x="1240" y="1240" width="40" height="40" as="geometry" />
        </mxCell>
        <mxCell id="oHiZlL5Amw6MgKZXLNVU-51" value="Send Token to Parser" style="rounded=1;whiteSpace=wrap;html=1;strokeColor=#000000;" vertex="1" parent="1">
          <mxGeometry x="800" y="640" width="640" height="80" as="geometry" />
        </mxCell>
        <mxCell id="oHiZlL5Amw6MgKZXLNVU-52" value="" style="ellipse;whiteSpace=wrap;html=1;aspect=fixed;" vertex="1" parent="1">
          <mxGeometry x="1070" y="720" width="20" height="20" as="geometry" />
        </mxCell>
        <mxCell id="oHiZlL5Amw6MgKZXLNVU-53" value="" style="ellipse;whiteSpace=wrap;html=1;aspect=fixed;" vertex="1" parent="1">
          <mxGeometry x="1110" y="720" width="20" height="20" as="geometry" />
        </mxCell>
        <mxCell id="oHiZlL5Amw6MgKZXLNVU-54" value="" style="ellipse;whiteSpace=wrap;html=1;aspect=fixed;" vertex="1" parent="1">
          <mxGeometry x="1150" y="720" width="20" height="20" as="geometry" />
        </mxCell>
        <mxCell id="oHiZlL5Amw6MgKZXLNVU-61" value="W/Tint" style="text;html=1;align=center;verticalAlign=middle;whiteSpace=wrap;rounded=0;" vertex="1" parent="1">
          <mxGeometry x="1040" y="760" width="40" height="40" as="geometry" />
        </mxCell>
        <mxCell id="oHiZlL5Amw6MgKZXLNVU-62" value="SE/&lt;div&gt;-Tint&lt;/div&gt;" style="text;html=1;align=center;verticalAlign=middle;whiteSpace=wrap;rounded=0;" vertex="1" parent="1">
          <mxGeometry x="1080" y="760" width="40" height="40" as="geometry" />
        </mxCell>
        <mxCell id="oHiZlL5Amw6MgKZXLNVU-64" value="&lt;span style=&quot;background-color: initial;&quot;&gt;else/&lt;br&gt;-Tint&lt;/span&gt;" style="text;html=1;align=center;verticalAlign=middle;whiteSpace=wrap;rounded=0;" vertex="1" parent="1">
          <mxGeometry x="1120" y="760" width="40" height="40" as="geometry" />
        </mxCell>
        <mxCell id="oHiZlL5Amw6MgKZXLNVU-66" value="LEXICAL ERROR" style="shape=hexagon;perimeter=hexagonPerimeter2;whiteSpace=wrap;html=1;fixedSize=1;fillColor=#FF9933;" vertex="1" parent="1">
          <mxGeometry x="880" y="1480" width="120" height="80" as="geometry" />
        </mxCell>
        <mxCell id="oHiZlL5Amw6MgKZXLNVU-68" value="X&lt;span style=&quot;background-color: initial;&quot;&gt;/&lt;/span&gt;" style="text;html=1;align=center;verticalAlign=middle;whiteSpace=wrap;rounded=0;" vertex="1" parent="1">
          <mxGeometry x="999.9999999999998" y="1480" width="40" height="40" as="geometry" />
        </mxCell>
        <mxCell id="oHiZlL5Amw6MgKZXLNVU-69" value="LEXICAL ERROR" style="shape=hexagon;perimeter=hexagonPerimeter2;whiteSpace=wrap;html=1;fixedSize=1;fillColor=#FF9933;" vertex="1" parent="1">
          <mxGeometry x="1400" y="1120" width="120" height="80" as="geometry" />
        </mxCell>
        <mxCell id="oHiZlL5Amw6MgKZXLNVU-76" style="edgeStyle=orthogonalEdgeStyle;rounded=0;orthogonalLoop=1;jettySize=auto;html=1;exitX=0.25;exitY=1;exitDx=0;exitDy=0;entryX=1;entryY=0.5;entryDx=0;entryDy=0;" edge="1" parent="1" source="oHiZlL5Amw6MgKZXLNVU-71" target="oHiZlL5Amw6MgKZXLNVU-32">
          <mxGeometry relative="1" as="geometry">
            <Array as="points">
              <mxPoint x="1240" y="1080" />
              <mxPoint x="1080" y="1080" />
              <mxPoint x="1080" y="1320" />
            </Array>
          </mxGeometry>
        </mxCell>
        <mxCell id="oHiZlL5Amw6MgKZXLNVU-135" style="edgeStyle=orthogonalEdgeStyle;rounded=0;orthogonalLoop=1;jettySize=auto;html=1;exitX=0.5;exitY=0;exitDx=0;exitDy=0;entryX=0.5;entryY=1;entryDx=0;entryDy=0;" edge="1" parent="1" source="oHiZlL5Amw6MgKZXLNVU-71" target="oHiZlL5Amw6MgKZXLNVU-127">
          <mxGeometry relative="1" as="geometry" />
        </mxCell>
        <mxCell id="oHiZlL5Amw6MgKZXLNVU-143" style="edgeStyle=orthogonalEdgeStyle;rounded=0;orthogonalLoop=1;jettySize=auto;html=1;exitX=0.5;exitY=0;exitDx=0;exitDy=0;entryX=0.5;entryY=1;entryDx=0;entryDy=0;" edge="1" parent="1" source="oHiZlL5Amw6MgKZXLNVU-71" target="oHiZlL5Amw6MgKZXLNVU-129">
          <mxGeometry relative="1" as="geometry">
            <Array as="points">
              <mxPoint x="1280" y="880" />
              <mxPoint x="1320" y="880" />
            </Array>
          </mxGeometry>
        </mxCell>
        <mxCell id="oHiZlL5Amw6MgKZXLNVU-151" style="edgeStyle=orthogonalEdgeStyle;rounded=0;orthogonalLoop=1;jettySize=auto;html=1;exitX=0.75;exitY=0;exitDx=0;exitDy=0;entryX=0;entryY=0.5;entryDx=0;entryDy=0;" edge="1" parent="1" source="oHiZlL5Amw6MgKZXLNVU-71" target="oHiZlL5Amw6MgKZXLNVU-132">
          <mxGeometry relative="1" as="geometry" />
        </mxCell>
        <mxCell id="oHiZlL5Amw6MgKZXLNVU-71" value="State: FLOAT AFTER PERIOD" style="rounded=1;whiteSpace=wrap;html=1;strokeColor=#00CC00;" vertex="1" parent="1">
          <mxGeometry x="1200" y="960" width="160" height="80" as="geometry" />
        </mxCell>
        <mxCell id="oHiZlL5Amw6MgKZXLNVU-73" value="N/+" style="text;html=1;align=center;verticalAlign=middle;whiteSpace=wrap;rounded=0;" vertex="1" parent="1">
          <mxGeometry x="1240" y="1080" width="40" height="40" as="geometry" />
        </mxCell>
        <mxCell id="oHiZlL5Amw6MgKZXLNVU-74" value="else/" style="text;html=1;align=center;verticalAlign=middle;whiteSpace=wrap;rounded=0;" vertex="1" parent="1">
          <mxGeometry x="1360" y="1120" width="40" height="40" as="geometry" />
        </mxCell>
        <mxCell id="oHiZlL5Amw6MgKZXLNVU-77" value="" style="ellipse;whiteSpace=wrap;html=1;aspect=fixed;fillColor=#000000;" vertex="1" parent="1">
          <mxGeometry x="310" y="1260" width="20" height="20" as="geometry" />
        </mxCell>
        <mxCell id="oHiZlL5Amw6MgKZXLNVU-79" value="" style="ellipse;whiteSpace=wrap;html=1;aspect=fixed;fillColor=#000000;" vertex="1" parent="1">
          <mxGeometry x="350" y="1260" width="20" height="20" as="geometry" />
        </mxCell>
        <mxCell id="oHiZlL5Amw6MgKZXLNVU-80" value="" style="ellipse;whiteSpace=wrap;html=1;aspect=fixed;fillColor=#000000;" vertex="1" parent="1">
          <mxGeometry x="390" y="1260" width="20" height="20" as="geometry" />
        </mxCell>
        <mxCell id="oHiZlL5Amw6MgKZXLNVU-81" value="" style="ellipse;whiteSpace=wrap;html=1;aspect=fixed;fillColor=#000000;" vertex="1" parent="1">
          <mxGeometry x="430" y="1260" width="20" height="20" as="geometry" />
        </mxCell>
        <mxCell id="oHiZlL5Amw6MgKZXLNVU-82" value="" style="ellipse;whiteSpace=wrap;html=1;aspect=fixed;fillColor=#000000;" vertex="1" parent="1">
          <mxGeometry x="470" y="1260" width="20" height="20" as="geometry" />
        </mxCell>
        <mxCell id="oHiZlL5Amw6MgKZXLNVU-83" value="" style="ellipse;whiteSpace=wrap;html=1;aspect=fixed;fillColor=#000000;" vertex="1" parent="1">
          <mxGeometry x="510" y="1260" width="20" height="20" as="geometry" />
        </mxCell>
        <mxCell id="oHiZlL5Amw6MgKZXLNVU-86" value="" style="ellipse;whiteSpace=wrap;html=1;aspect=fixed;fillColor=#000000;" vertex="1" parent="1">
          <mxGeometry x="550" y="1260" width="20" height="20" as="geometry" />
        </mxCell>
        <mxCell id="oHiZlL5Amw6MgKZXLNVU-87" value="" style="ellipse;whiteSpace=wrap;html=1;aspect=fixed;fillColor=#000000;" vertex="1" parent="1">
          <mxGeometry x="150" y="1260" width="20" height="20" as="geometry" />
        </mxCell>
        <mxCell id="oHiZlL5Amw6MgKZXLNVU-88" value="" style="ellipse;whiteSpace=wrap;html=1;aspect=fixed;fillColor=#000000;" vertex="1" parent="1">
          <mxGeometry x="190" y="1260" width="20" height="20" as="geometry" />
        </mxCell>
        <mxCell id="oHiZlL5Amw6MgKZXLNVU-89" value="" style="ellipse;whiteSpace=wrap;html=1;aspect=fixed;fillColor=#000000;" vertex="1" parent="1">
          <mxGeometry x="230" y="1260" width="20" height="20" as="geometry" />
        </mxCell>
        <mxCell id="oHiZlL5Amw6MgKZXLNVU-90" value="" style="ellipse;whiteSpace=wrap;html=1;aspect=fixed;fillColor=#000000;" vertex="1" parent="1">
          <mxGeometry x="270" y="1260" width="20" height="20" as="geometry" />
        </mxCell>
        <mxCell id="oHiZlL5Amw6MgKZXLNVU-91" value="" style="ellipse;whiteSpace=wrap;html=1;aspect=fixed;fillColor=#000000;" vertex="1" parent="1">
          <mxGeometry x="70" y="1260" width="20" height="20" as="geometry" />
        </mxCell>
        <mxCell id="oHiZlL5Amw6MgKZXLNVU-92" value="" style="ellipse;whiteSpace=wrap;html=1;aspect=fixed;fillColor=#000000;" vertex="1" parent="1">
          <mxGeometry x="110" y="1260" width="20" height="20" as="geometry" />
        </mxCell>
        <mxCell id="oHiZlL5Amw6MgKZXLNVU-93" value="" style="ellipse;whiteSpace=wrap;html=1;aspect=fixed;fillColor=#000000;" vertex="1" parent="1">
          <mxGeometry x="1110" y="1390" width="20" height="20" as="geometry" />
        </mxCell>
        <mxCell id="oHiZlL5Amw6MgKZXLNVU-108" style="edgeStyle=orthogonalEdgeStyle;rounded=0;orthogonalLoop=1;jettySize=auto;html=1;exitX=0.5;exitY=0;exitDx=0;exitDy=0;entryX=0.25;entryY=1;entryDx=0;entryDy=0;" edge="1" parent="1" source="oHiZlL5Amw6MgKZXLNVU-99" target="oHiZlL5Amw6MgKZXLNVU-106">
          <mxGeometry relative="1" as="geometry" />
        </mxCell>
        <mxCell id="oHiZlL5Amw6MgKZXLNVU-109" style="edgeStyle=orthogonalEdgeStyle;rounded=0;orthogonalLoop=1;jettySize=auto;html=1;exitX=0.5;exitY=0;exitDx=0;exitDy=0;entryX=0.5;entryY=1;entryDx=0;entryDy=0;" edge="1" parent="1" source="oHiZlL5Amw6MgKZXLNVU-124" target="oHiZlL5Amw6MgKZXLNVU-106">
          <mxGeometry relative="1" as="geometry" />
        </mxCell>
        <mxCell id="oHiZlL5Amw6MgKZXLNVU-119" style="edgeStyle=orthogonalEdgeStyle;rounded=0;orthogonalLoop=1;jettySize=auto;html=1;exitX=0;exitY=0.5;exitDx=0;exitDy=0;entryX=1;entryY=0.5;entryDx=0;entryDy=0;" edge="1" parent="1" source="oHiZlL5Amw6MgKZXLNVU-99" target="oHiZlL5Amw6MgKZXLNVU-118">
          <mxGeometry relative="1" as="geometry" />
        </mxCell>
        <mxCell id="oHiZlL5Amw6MgKZXLNVU-99" value="SWITCH(c)" style="rhombus;whiteSpace=wrap;html=1;" vertex="1" parent="1">
          <mxGeometry x="920" y="1000" width="80" height="80" as="geometry" />
        </mxCell>
        <mxCell id="oHiZlL5Amw6MgKZXLNVU-100" value="L/" style="text;html=1;align=center;verticalAlign=middle;whiteSpace=wrap;rounded=0;" vertex="1" parent="1">
          <mxGeometry x="919.9999999999998" y="1080" width="40" height="40" as="geometry" />
        </mxCell>
        <mxCell id="oHiZlL5Amw6MgKZXLNVU-157" style="edgeStyle=orthogonalEdgeStyle;rounded=0;orthogonalLoop=1;jettySize=auto;html=1;exitX=0.25;exitY=0;exitDx=0;exitDy=0;entryX=1;entryY=0.5;entryDx=0;entryDy=0;" edge="1" parent="1" source="oHiZlL5Amw6MgKZXLNVU-106" target="oHiZlL5Amw6MgKZXLNVU-156">
          <mxGeometry relative="1" as="geometry" />
        </mxCell>
        <mxCell id="oHiZlL5Amw6MgKZXLNVU-159" style="edgeStyle=orthogonalEdgeStyle;rounded=0;orthogonalLoop=1;jettySize=auto;html=1;exitX=0.5;exitY=0;exitDx=0;exitDy=0;entryX=0.5;entryY=1;entryDx=0;entryDy=0;" edge="1" parent="1" source="oHiZlL5Amw6MgKZXLNVU-106" target="oHiZlL5Amw6MgKZXLNVU-153">
          <mxGeometry relative="1" as="geometry">
            <Array as="points">
              <mxPoint x="960" y="800" />
              <mxPoint x="920" y="800" />
            </Array>
          </mxGeometry>
        </mxCell>
        <mxCell id="oHiZlL5Amw6MgKZXLNVU-166" style="edgeStyle=orthogonalEdgeStyle;rounded=0;orthogonalLoop=1;jettySize=auto;html=1;exitX=0.5;exitY=0;exitDx=0;exitDy=0;entryX=0.5;entryY=1;entryDx=0;entryDy=0;" edge="1" parent="1" source="oHiZlL5Amw6MgKZXLNVU-106" target="oHiZlL5Amw6MgKZXLNVU-155">
          <mxGeometry relative="1" as="geometry">
            <Array as="points">
              <mxPoint x="960" y="800" />
              <mxPoint x="1000" y="800" />
            </Array>
          </mxGeometry>
        </mxCell>
        <mxCell id="oHiZlL5Amw6MgKZXLNVU-106" value="State: FLOAT" style="rounded=1;whiteSpace=wrap;html=1;strokeColor=#00CC00;" vertex="1" parent="1">
          <mxGeometry x="880" y="840" width="160" height="80" as="geometry" />
        </mxCell>
        <mxCell id="oHiZlL5Amw6MgKZXLNVU-111" value="&quot;+&quot;/+" style="text;html=1;align=center;verticalAlign=middle;whiteSpace=wrap;rounded=0;" vertex="1" parent="1">
          <mxGeometry x="879.9999999999998" y="920" width="40" height="40" as="geometry" />
        </mxCell>
        <mxCell id="oHiZlL5Amw6MgKZXLNVU-112" value="&quot;-&quot;/+" style="text;html=1;align=center;verticalAlign=middle;whiteSpace=wrap;rounded=0;" vertex="1" parent="1">
          <mxGeometry x="919.9999999999998" y="920" width="40" height="40" as="geometry" />
        </mxCell>
        <mxCell id="oHiZlL5Amw6MgKZXLNVU-114" value="N/+" style="text;html=1;align=center;verticalAlign=middle;whiteSpace=wrap;rounded=0;" vertex="1" parent="1">
          <mxGeometry x="959.9999999999998" y="1080" width="40" height="40" as="geometry" />
        </mxCell>
        <mxCell id="oHiZlL5Amw6MgKZXLNVU-115" value="LEXICAL ERROR" style="shape=hexagon;perimeter=hexagonPerimeter2;whiteSpace=wrap;html=1;fixedSize=1;fillColor=#FF9933;" vertex="1" parent="1">
          <mxGeometry x="720" y="1120" width="120" height="80" as="geometry" />
        </mxCell>
        <mxCell id="oHiZlL5Amw6MgKZXLNVU-117" value="else/" style="text;html=1;align=center;verticalAlign=middle;whiteSpace=wrap;rounded=0;" vertex="1" parent="1">
          <mxGeometry x="879.9999999999998" y="1000" width="40" height="40" as="geometry" />
        </mxCell>
        <mxCell id="oHiZlL5Amw6MgKZXLNVU-118" value="LEXICAL ERROR" style="shape=hexagon;perimeter=hexagonPerimeter2;whiteSpace=wrap;html=1;fixedSize=1;fillColor=#FF9933;" vertex="1" parent="1">
          <mxGeometry x="760" y="1000" width="120" height="80" as="geometry" />
        </mxCell>
        <mxCell id="oHiZlL5Amw6MgKZXLNVU-120" value="else/" style="text;html=1;align=center;verticalAlign=middle;whiteSpace=wrap;rounded=0;" vertex="1" parent="1">
          <mxGeometry x="839.9999999999998" y="1120" width="40" height="40" as="geometry" />
        </mxCell>
        <mxCell id="oHiZlL5Amw6MgKZXLNVU-121" value="LEXICAL ERROR" style="shape=hexagon;perimeter=hexagonPerimeter2;whiteSpace=wrap;html=1;fixedSize=1;fillColor=#FF9933;" vertex="1" parent="1">
          <mxGeometry x="1360" y="1280" width="120" height="80" as="geometry" />
        </mxCell>
        <mxCell id="oHiZlL5Amw6MgKZXLNVU-123" value="else/" style="text;html=1;align=center;verticalAlign=middle;whiteSpace=wrap;rounded=0;" vertex="1" parent="1">
          <mxGeometry x="1320" y="1280" width="40" height="40" as="geometry" />
        </mxCell>
        <mxCell id="oHiZlL5Amw6MgKZXLNVU-124" value="" style="ellipse;whiteSpace=wrap;html=1;aspect=fixed;fillColor=#000000;" vertex="1" parent="1">
          <mxGeometry x="950" y="950" width="20" height="20" as="geometry" />
        </mxCell>
        <mxCell id="oHiZlL5Amw6MgKZXLNVU-127" value="" style="ellipse;whiteSpace=wrap;html=1;aspect=fixed;" vertex="1" parent="1">
          <mxGeometry x="1270" y="720" width="20" height="20" as="geometry" />
        </mxCell>
        <mxCell id="oHiZlL5Amw6MgKZXLNVU-129" value="" style="ellipse;whiteSpace=wrap;html=1;aspect=fixed;" vertex="1" parent="1">
          <mxGeometry x="1310" y="720" width="20" height="20" as="geometry" />
        </mxCell>
        <mxCell id="oHiZlL5Amw6MgKZXLNVU-132" value="LEXICAL ERROR" style="shape=hexagon;perimeter=hexagonPerimeter2;whiteSpace=wrap;html=1;fixedSize=1;fillColor=#FF9933;" vertex="1" parent="1">
          <mxGeometry x="1360" y="880" width="120" height="80" as="geometry" />
        </mxCell>
        <mxCell id="oHiZlL5Amw6MgKZXLNVU-134" value="else/" style="text;html=1;align=center;verticalAlign=middle;whiteSpace=wrap;rounded=0;" vertex="1" parent="1">
          <mxGeometry x="1320" y="880" width="40" height="40" as="geometry" />
        </mxCell>
        <mxCell id="oHiZlL5Amw6MgKZXLNVU-137" value="" style="ellipse;whiteSpace=wrap;html=1;aspect=fixed;fillColor=#000000;" vertex="1" parent="1">
          <mxGeometry x="1270" y="870" width="20" height="20" as="geometry" />
        </mxCell>
        <mxCell id="oHiZlL5Amw6MgKZXLNVU-140" value="SE/&lt;br&gt;-Tfloat" style="text;html=1;align=center;verticalAlign=middle;whiteSpace=wrap;rounded=0;" vertex="1" parent="1">
          <mxGeometry x="1280" y="760" width="40" height="40" as="geometry" />
        </mxCell>
        <mxCell id="oHiZlL5Amw6MgKZXLNVU-98" value="" style="ellipse;whiteSpace=wrap;html=1;aspect=fixed;fillColor=#000000;" vertex="1" parent="1">
          <mxGeometry x="1110" y="870" width="20" height="20" as="geometry" />
        </mxCell>
        <mxCell id="oHiZlL5Amw6MgKZXLNVU-146" value="W/&lt;br&gt;Tfloat" style="text;html=1;align=center;verticalAlign=middle;whiteSpace=wrap;rounded=0;" vertex="1" parent="1">
          <mxGeometry x="1240" y="760" width="40" height="40" as="geometry" />
        </mxCell>
        <mxCell id="oHiZlL5Amw6MgKZXLNVU-147" value="" style="curved=1;endArrow=classic;html=1;rounded=0;exitX=0;exitY=0.25;exitDx=0;exitDy=0;entryX=0;entryY=0.75;entryDx=0;entryDy=0;strokeColor=#00CC00;" edge="1" parent="1" source="oHiZlL5Amw6MgKZXLNVU-106" target="oHiZlL5Amw6MgKZXLNVU-106">
          <mxGeometry width="50" height="50" relative="1" as="geometry">
            <mxPoint x="780" y="840" as="sourcePoint" />
            <mxPoint x="780" y="920" as="targetPoint" />
            <Array as="points">
              <mxPoint x="720" y="880" />
            </Array>
          </mxGeometry>
        </mxCell>
        <mxCell id="oHiZlL5Amw6MgKZXLNVU-148" value="N/+" style="text;html=1;align=center;verticalAlign=middle;whiteSpace=wrap;rounded=0;" vertex="1" parent="1">
          <mxGeometry x="840" y="860" width="40" height="40" as="geometry" />
        </mxCell>
        <mxCell id="oHiZlL5Amw6MgKZXLNVU-149" value="" style="curved=1;endArrow=classic;html=1;rounded=0;exitX=1;exitY=0.25;exitDx=0;exitDy=0;strokeColor=#00CC00;entryX=1;entryY=0.75;entryDx=0;entryDy=0;" edge="1" parent="1" source="oHiZlL5Amw6MgKZXLNVU-71" target="oHiZlL5Amw6MgKZXLNVU-71">
          <mxGeometry width="50" height="50" relative="1" as="geometry">
            <mxPoint x="1550" y="770" as="sourcePoint" />
            <mxPoint x="1505" y="820" as="targetPoint" />
            <Array as="points">
              <mxPoint x="1520" y="1000" />
            </Array>
          </mxGeometry>
        </mxCell>
        <mxCell id="oHiZlL5Amw6MgKZXLNVU-150" value="N/+" style="text;html=1;align=center;verticalAlign=middle;whiteSpace=wrap;rounded=0;" vertex="1" parent="1">
          <mxGeometry x="1360" y="980" width="40" height="40" as="geometry" />
        </mxCell>
        <mxCell id="oHiZlL5Amw6MgKZXLNVU-152" value="C/" style="text;html=1;align=center;verticalAlign=middle;whiteSpace=wrap;rounded=0;" vertex="1" parent="1">
          <mxGeometry x="1199.9999999999998" y="1040" width="40" height="40" as="geometry" />
        </mxCell>
        <mxCell id="oHiZlL5Amw6MgKZXLNVU-153" value="" style="ellipse;whiteSpace=wrap;html=1;aspect=fixed;" vertex="1" parent="1">
          <mxGeometry x="910" y="720" width="20" height="20" as="geometry" />
        </mxCell>
        <mxCell id="oHiZlL5Amw6MgKZXLNVU-155" value="" style="ellipse;whiteSpace=wrap;html=1;aspect=fixed;" vertex="1" parent="1">
          <mxGeometry x="990" y="720" width="20" height="20" as="geometry" />
        </mxCell>
        <mxCell id="oHiZlL5Amw6MgKZXLNVU-156" value="LEXICAL ERROR" style="shape=hexagon;perimeter=hexagonPerimeter2;whiteSpace=wrap;html=1;fixedSize=1;fillColor=#FF9933;" vertex="1" parent="1">
          <mxGeometry x="680" y="800" width="120" height="80" as="geometry" />
        </mxCell>
        <mxCell id="oHiZlL5Amw6MgKZXLNVU-158" value="else/" style="text;html=1;align=center;verticalAlign=middle;whiteSpace=wrap;rounded=0;" vertex="1" parent="1">
          <mxGeometry x="799.9999999999998" y="800" width="40" height="40" as="geometry" />
        </mxCell>
        <mxCell id="oHiZlL5Amw6MgKZXLNVU-161" value="W/&lt;br&gt;Tfloat" style="text;html=1;align=center;verticalAlign=middle;whiteSpace=wrap;rounded=0;" vertex="1" parent="1">
          <mxGeometry x="880" y="760" width="40" height="40" as="geometry" />
        </mxCell>
        <mxCell id="oHiZlL5Amw6MgKZXLNVU-162" value="SCE/&lt;br&gt;-Tfloat" style="text;html=1;align=center;verticalAlign=middle;whiteSpace=wrap;rounded=0;" vertex="1" parent="1">
          <mxGeometry x="960" y="760" width="40" height="40" as="geometry" />
        </mxCell>
        <mxCell id="oHiZlL5Amw6MgKZXLNVU-164" value="" style="ellipse;whiteSpace=wrap;html=1;aspect=fixed;fillColor=#000000;" vertex="1" parent="1">
          <mxGeometry x="950" y="790" width="20" height="20" as="geometry" />
        </mxCell>
        <mxCell id="oHiZlL5Amw6MgKZXLNVU-167" value="Start" style="rounded=1;whiteSpace=wrap;html=1;" vertex="1" parent="1">
          <mxGeometry x="1720" y="1720" width="240" height="80" as="geometry" />
        </mxCell>
        <mxCell id="oHiZlL5Amw6MgKZXLNVU-168" value="Send Token to Parser" style="rounded=1;whiteSpace=wrap;html=1;strokeColor=#000000;" vertex="1" parent="1">
          <mxGeometry x="1600" y="1120" width="480" height="80" as="geometry" />
        </mxCell>
        <mxCell id="oHiZlL5Amw6MgKZXLNVU-186" value="" style="endArrow=classic;html=1;rounded=0;entryX=0.5;entryY=1;entryDx=0;entryDy=0;strokeColor=#FF9999;exitX=0.5;exitY=0;exitDx=0;exitDy=0;" edge="1" parent="1" source="oHiZlL5Amw6MgKZXLNVU-191" target="oHiZlL5Amw6MgKZXLNVU-189">
          <mxGeometry width="50" height="50" relative="1" as="geometry">
            <mxPoint x="320" y="800" as="sourcePoint" />
            <mxPoint x="280" y="720" as="targetPoint" />
          </mxGeometry>
        </mxCell>
        <mxCell id="oHiZlL5Amw6MgKZXLNVU-187" value="C/" style="text;html=1;align=center;verticalAlign=middle;whiteSpace=wrap;rounded=0;" vertex="1" parent="1">
          <mxGeometry x="280" y="720" width="40" height="40" as="geometry" />
        </mxCell>
        <mxCell id="oHiZlL5Amw6MgKZXLNVU-575" style="edgeStyle=orthogonalEdgeStyle;rounded=0;orthogonalLoop=1;jettySize=auto;html=1;exitX=0.5;exitY=0;exitDx=0;exitDy=0;entryX=0.5;entryY=1;entryDx=0;entryDy=0;" edge="1" parent="1" source="oHiZlL5Amw6MgKZXLNVU-189" target="oHiZlL5Amw6MgKZXLNVU-190">
          <mxGeometry relative="1" as="geometry" />
        </mxCell>
        <mxCell id="oHiZlL5Amw6MgKZXLNVU-189" value="State: S. COMPLEX" style="rounded=1;whiteSpace=wrap;html=1;strokeColor=#FF9999;" vertex="1" parent="1">
          <mxGeometry x="240" y="520" width="160" height="160" as="geometry" />
        </mxCell>
        <mxCell id="oHiZlL5Amw6MgKZXLNVU-194" style="edgeStyle=orthogonalEdgeStyle;rounded=0;orthogonalLoop=1;jettySize=auto;html=1;exitX=0.5;exitY=0;exitDx=0;exitDy=0;entryX=0.5;entryY=1;entryDx=0;entryDy=0;" edge="1" parent="1" source="oHiZlL5Amw6MgKZXLNVU-190" target="oHiZlL5Amw6MgKZXLNVU-193">
          <mxGeometry relative="1" as="geometry" />
        </mxCell>
        <mxCell id="oHiZlL5Amw6MgKZXLNVU-244" style="edgeStyle=orthogonalEdgeStyle;rounded=0;orthogonalLoop=1;jettySize=auto;html=1;exitX=1;exitY=0.5;exitDx=0;exitDy=0;entryX=0.5;entryY=1;entryDx=0;entryDy=0;" edge="1" parent="1" source="oHiZlL5Amw6MgKZXLNVU-190" target="oHiZlL5Amw6MgKZXLNVU-228">
          <mxGeometry relative="1" as="geometry" />
        </mxCell>
        <mxCell id="oHiZlL5Amw6MgKZXLNVU-246" style="edgeStyle=orthogonalEdgeStyle;rounded=0;orthogonalLoop=1;jettySize=auto;html=1;exitX=1;exitY=0.5;exitDx=0;exitDy=0;entryX=0.5;entryY=1;entryDx=0;entryDy=0;" edge="1" parent="1" source="oHiZlL5Amw6MgKZXLNVU-190" target="oHiZlL5Amw6MgKZXLNVU-245">
          <mxGeometry relative="1" as="geometry" />
        </mxCell>
        <mxCell id="oHiZlL5Amw6MgKZXLNVU-266" style="edgeStyle=orthogonalEdgeStyle;rounded=0;orthogonalLoop=1;jettySize=auto;html=1;exitX=1;exitY=0.5;exitDx=0;exitDy=0;entryX=0.5;entryY=1;entryDx=0;entryDy=0;" edge="1" parent="1" source="oHiZlL5Amw6MgKZXLNVU-190" target="oHiZlL5Amw6MgKZXLNVU-254">
          <mxGeometry relative="1" as="geometry" />
        </mxCell>
        <mxCell id="oHiZlL5Amw6MgKZXLNVU-267" style="edgeStyle=orthogonalEdgeStyle;rounded=0;orthogonalLoop=1;jettySize=auto;html=1;exitX=1;exitY=0.5;exitDx=0;exitDy=0;entryX=0.5;entryY=1;entryDx=0;entryDy=0;" edge="1" parent="1" source="oHiZlL5Amw6MgKZXLNVU-190" target="oHiZlL5Amw6MgKZXLNVU-262">
          <mxGeometry relative="1" as="geometry" />
        </mxCell>
        <mxCell id="oHiZlL5Amw6MgKZXLNVU-278" style="edgeStyle=orthogonalEdgeStyle;rounded=0;orthogonalLoop=1;jettySize=auto;html=1;exitX=1;exitY=0.5;exitDx=0;exitDy=0;entryX=0.5;entryY=1;entryDx=0;entryDy=0;" edge="1" parent="1" source="oHiZlL5Amw6MgKZXLNVU-190" target="oHiZlL5Amw6MgKZXLNVU-277">
          <mxGeometry relative="1" as="geometry" />
        </mxCell>
        <mxCell id="oHiZlL5Amw6MgKZXLNVU-319" style="edgeStyle=orthogonalEdgeStyle;rounded=0;orthogonalLoop=1;jettySize=auto;html=1;exitX=1;exitY=0.5;exitDx=0;exitDy=0;entryX=0.5;entryY=1;entryDx=0;entryDy=0;" edge="1" parent="1" source="oHiZlL5Amw6MgKZXLNVU-190" target="oHiZlL5Amw6MgKZXLNVU-315">
          <mxGeometry relative="1" as="geometry" />
        </mxCell>
        <mxCell id="oHiZlL5Amw6MgKZXLNVU-342" style="edgeStyle=orthogonalEdgeStyle;rounded=0;orthogonalLoop=1;jettySize=auto;html=1;exitX=1;exitY=0.5;exitDx=0;exitDy=0;entryX=0.5;entryY=1;entryDx=0;entryDy=0;" edge="1" parent="1" source="oHiZlL5Amw6MgKZXLNVU-190" target="oHiZlL5Amw6MgKZXLNVU-337">
          <mxGeometry relative="1" as="geometry" />
        </mxCell>
        <mxCell id="oHiZlL5Amw6MgKZXLNVU-426" style="edgeStyle=orthogonalEdgeStyle;rounded=0;orthogonalLoop=1;jettySize=auto;html=1;exitX=1;exitY=0.5;exitDx=0;exitDy=0;entryX=0.5;entryY=1;entryDx=0;entryDy=0;" edge="1" parent="1" source="oHiZlL5Amw6MgKZXLNVU-190" target="oHiZlL5Amw6MgKZXLNVU-409">
          <mxGeometry relative="1" as="geometry" />
        </mxCell>
        <mxCell id="oHiZlL5Amw6MgKZXLNVU-540" style="edgeStyle=orthogonalEdgeStyle;rounded=0;orthogonalLoop=1;jettySize=auto;html=1;exitX=1;exitY=0.5;exitDx=0;exitDy=0;entryX=0.5;entryY=1;entryDx=0;entryDy=0;" edge="1" parent="1" source="oHiZlL5Amw6MgKZXLNVU-190" target="oHiZlL5Amw6MgKZXLNVU-539">
          <mxGeometry relative="1" as="geometry" />
        </mxCell>
        <mxCell id="oHiZlL5Amw6MgKZXLNVU-577" style="edgeStyle=orthogonalEdgeStyle;rounded=0;orthogonalLoop=1;jettySize=auto;html=1;exitX=1;exitY=0.5;exitDx=0;exitDy=0;entryX=0.5;entryY=1;entryDx=0;entryDy=0;" edge="1" parent="1" source="oHiZlL5Amw6MgKZXLNVU-190" target="oHiZlL5Amw6MgKZXLNVU-463">
          <mxGeometry relative="1" as="geometry" />
        </mxCell>
        <mxCell id="oHiZlL5Amw6MgKZXLNVU-190" value="SWITCH(c)" style="rhombus;whiteSpace=wrap;html=1;" vertex="1" parent="1">
          <mxGeometry x="40" y="400" width="80" height="80" as="geometry" />
        </mxCell>
        <mxCell id="oHiZlL5Amw6MgKZXLNVU-191" value="Start" style="rounded=1;whiteSpace=wrap;html=1;" vertex="1" parent="1">
          <mxGeometry x="200" y="800" width="240" height="80" as="geometry" />
        </mxCell>
        <mxCell id="oHiZlL5Amw6MgKZXLNVU-192" value="Send Token to Parser" style="rounded=1;whiteSpace=wrap;html=1;strokeColor=#000000;" vertex="1" parent="1">
          <mxGeometry width="3200" height="80" as="geometry" />
        </mxCell>
        <mxCell id="oHiZlL5Amw6MgKZXLNVU-193" value="" style="ellipse;whiteSpace=wrap;html=1;aspect=fixed;" vertex="1" parent="1">
          <mxGeometry x="70" y="80" width="20" height="20" as="geometry" />
        </mxCell>
        <mxCell id="oHiZlL5Amw6MgKZXLNVU-195" value="&quot;.&quot;/T." style="text;html=1;align=center;verticalAlign=middle;whiteSpace=wrap;rounded=0;" vertex="1" parent="1">
          <mxGeometry x="40" y="100" width="40" height="40" as="geometry" />
        </mxCell>
        <mxCell id="oHiZlL5Amw6MgKZXLNVU-196" value="" style="ellipse;whiteSpace=wrap;html=1;aspect=fixed;fillColor=#000000;" vertex="1" parent="1">
          <mxGeometry x="1830" y="1260" width="20" height="20" as="geometry" />
        </mxCell>
        <mxCell id="oHiZlL5Amw6MgKZXLNVU-198" value="" style="ellipse;whiteSpace=wrap;html=1;aspect=fixed;fillColor=#000000;" vertex="1" parent="1">
          <mxGeometry x="1790" y="1260" width="20" height="20" as="geometry" />
        </mxCell>
        <mxCell id="oHiZlL5Amw6MgKZXLNVU-200" value="" style="ellipse;whiteSpace=wrap;html=1;aspect=fixed;fillColor=#000000;" vertex="1" parent="1">
          <mxGeometry x="1750" y="1260" width="20" height="20" as="geometry" />
        </mxCell>
        <mxCell id="oHiZlL5Amw6MgKZXLNVU-202" value="" style="ellipse;whiteSpace=wrap;html=1;aspect=fixed;fillColor=#000000;" vertex="1" parent="1">
          <mxGeometry x="1870" y="1260" width="20" height="20" as="geometry" />
        </mxCell>
        <mxCell id="oHiZlL5Amw6MgKZXLNVU-204" value="" style="ellipse;whiteSpace=wrap;html=1;aspect=fixed;fillColor=#000000;" vertex="1" parent="1">
          <mxGeometry x="1910" y="1260" width="20" height="20" as="geometry" />
        </mxCell>
        <mxCell id="oHiZlL5Amw6MgKZXLNVU-205" value="" style="ellipse;whiteSpace=wrap;html=1;aspect=fixed;fillColor=#000000;" vertex="1" parent="1">
          <mxGeometry x="1950" y="1260" width="20" height="20" as="geometry" />
        </mxCell>
        <mxCell id="oHiZlL5Amw6MgKZXLNVU-207" value="" style="ellipse;whiteSpace=wrap;html=1;aspect=fixed;fillColor=#000000;" vertex="1" parent="1">
          <mxGeometry x="1990" y="1260" width="20" height="20" as="geometry" />
        </mxCell>
        <mxCell id="oHiZlL5Amw6MgKZXLNVU-208" value="" style="ellipse;whiteSpace=wrap;html=1;aspect=fixed;fillColor=#000000;" vertex="1" parent="1">
          <mxGeometry x="1710" y="1260" width="20" height="20" as="geometry" />
        </mxCell>
        <mxCell id="oHiZlL5Amw6MgKZXLNVU-210" value="" style="ellipse;whiteSpace=wrap;html=1;aspect=fixed;fillColor=#000000;" vertex="1" parent="1">
          <mxGeometry x="1670" y="1260" width="20" height="20" as="geometry" />
        </mxCell>
        <mxCell id="oHiZlL5Amw6MgKZXLNVU-217" value="&quot;!&quot;/" style="text;html=1;align=center;verticalAlign=middle;whiteSpace=wrap;rounded=0;" vertex="1" parent="1">
          <mxGeometry x="160" y="320" width="40" height="40" as="geometry" />
        </mxCell>
        <mxCell id="oHiZlL5Amw6MgKZXLNVU-220" value="LEXICAL ERROR" style="shape=hexagon;perimeter=hexagonPerimeter2;whiteSpace=wrap;html=1;fixedSize=1;fillColor=#FF9933;" vertex="1" parent="1">
          <mxGeometry x="240" y="160" width="80" height="40" as="geometry" />
        </mxCell>
        <mxCell id="oHiZlL5Amw6MgKZXLNVU-234" style="edgeStyle=orthogonalEdgeStyle;rounded=0;orthogonalLoop=1;jettySize=auto;html=1;exitX=0.5;exitY=0;exitDx=0;exitDy=0;entryX=0.5;entryY=1;entryDx=0;entryDy=0;" edge="1" parent="1" source="oHiZlL5Amw6MgKZXLNVU-228" target="oHiZlL5Amw6MgKZXLNVU-241">
          <mxGeometry relative="1" as="geometry">
            <mxPoint x="200" y="240" as="targetPoint" />
          </mxGeometry>
        </mxCell>
        <mxCell id="oHiZlL5Amw6MgKZXLNVU-576" style="edgeStyle=orthogonalEdgeStyle;rounded=0;orthogonalLoop=1;jettySize=auto;html=1;exitX=0.75;exitY=0;exitDx=0;exitDy=0;entryX=0;entryY=0.5;entryDx=0;entryDy=0;" edge="1" parent="1" source="oHiZlL5Amw6MgKZXLNVU-228" target="oHiZlL5Amw6MgKZXLNVU-220">
          <mxGeometry relative="1" as="geometry" />
        </mxCell>
        <mxCell id="oHiZlL5Amw6MgKZXLNVU-228" value="State: !" style="rounded=1;whiteSpace=wrap;html=1;" vertex="1" parent="1">
          <mxGeometry x="160" y="240" width="80" height="80" as="geometry" />
        </mxCell>
        <mxCell id="oHiZlL5Amw6MgKZXLNVU-235" value="&quot;=&quot;/T!=" style="text;html=1;align=center;verticalAlign=middle;whiteSpace=wrap;rounded=0;" vertex="1" parent="1">
          <mxGeometry x="160" y="100" width="40" height="40" as="geometry" />
        </mxCell>
        <mxCell id="oHiZlL5Amw6MgKZXLNVU-239" value="else/" style="text;html=1;align=center;verticalAlign=middle;whiteSpace=wrap;rounded=0;" vertex="1" parent="1">
          <mxGeometry x="220" y="200" width="40" height="40" as="geometry" />
        </mxCell>
        <mxCell id="oHiZlL5Amw6MgKZXLNVU-241" value="" style="ellipse;whiteSpace=wrap;html=1;aspect=fixed;" vertex="1" parent="1">
          <mxGeometry x="190" y="80" width="20" height="20" as="geometry" />
        </mxCell>
        <mxCell id="oHiZlL5Amw6MgKZXLNVU-242" value="" style="ellipse;whiteSpace=wrap;html=1;aspect=fixed;fillColor=#000000;" vertex="1" parent="1">
          <mxGeometry x="190" y="430" width="20" height="20" as="geometry" />
        </mxCell>
        <mxCell id="oHiZlL5Amw6MgKZXLNVU-249" style="edgeStyle=orthogonalEdgeStyle;rounded=0;orthogonalLoop=1;jettySize=auto;html=1;exitX=0.5;exitY=0;exitDx=0;exitDy=0;entryX=0.5;entryY=1;entryDx=0;entryDy=0;" edge="1" parent="1" source="oHiZlL5Amw6MgKZXLNVU-245" target="oHiZlL5Amw6MgKZXLNVU-248">
          <mxGeometry relative="1" as="geometry">
            <Array as="points">
              <mxPoint x="400" y="160" />
              <mxPoint x="360" y="160" />
            </Array>
          </mxGeometry>
        </mxCell>
        <mxCell id="oHiZlL5Amw6MgKZXLNVU-251" style="edgeStyle=orthogonalEdgeStyle;rounded=0;orthogonalLoop=1;jettySize=auto;html=1;exitX=0.5;exitY=0;exitDx=0;exitDy=0;entryX=0.5;entryY=1;entryDx=0;entryDy=0;" edge="1" parent="1" source="oHiZlL5Amw6MgKZXLNVU-245" target="oHiZlL5Amw6MgKZXLNVU-250">
          <mxGeometry relative="1" as="geometry">
            <Array as="points">
              <mxPoint x="400" y="160" />
              <mxPoint x="440" y="160" />
            </Array>
          </mxGeometry>
        </mxCell>
        <mxCell id="oHiZlL5Amw6MgKZXLNVU-245" value="State: &amp;lt;" style="rounded=1;whiteSpace=wrap;html=1;" vertex="1" parent="1">
          <mxGeometry x="360" y="240" width="80" height="80" as="geometry" />
        </mxCell>
        <mxCell id="oHiZlL5Amw6MgKZXLNVU-247" value="&quot;=&quot;/T&amp;lt;=" style="text;html=1;align=center;verticalAlign=middle;whiteSpace=wrap;rounded=0;" vertex="1" parent="1">
          <mxGeometry x="320" y="100" width="40" height="40" as="geometry" />
        </mxCell>
        <mxCell id="oHiZlL5Amw6MgKZXLNVU-248" value="" style="ellipse;whiteSpace=wrap;html=1;aspect=fixed;" vertex="1" parent="1">
          <mxGeometry x="350" y="80" width="20" height="20" as="geometry" />
        </mxCell>
        <mxCell id="oHiZlL5Amw6MgKZXLNVU-250" value="" style="ellipse;whiteSpace=wrap;html=1;aspect=fixed;" vertex="1" parent="1">
          <mxGeometry x="430" y="80" width="20" height="20" as="geometry" />
        </mxCell>
        <mxCell id="oHiZlL5Amw6MgKZXLNVU-252" value="else/&lt;br&gt;-T&amp;lt;" style="text;html=1;align=center;verticalAlign=middle;whiteSpace=wrap;rounded=0;" vertex="1" parent="1">
          <mxGeometry x="400" y="100" width="40" height="40" as="geometry" />
        </mxCell>
        <mxCell id="oHiZlL5Amw6MgKZXLNVU-253" value="" style="ellipse;whiteSpace=wrap;html=1;aspect=fixed;fillColor=#000000;" vertex="1" parent="1">
          <mxGeometry x="390" y="430" width="20" height="20" as="geometry" />
        </mxCell>
        <mxCell id="oHiZlL5Amw6MgKZXLNVU-260" style="edgeStyle=orthogonalEdgeStyle;rounded=0;orthogonalLoop=1;jettySize=auto;html=1;exitX=0.5;exitY=0;exitDx=0;exitDy=0;entryX=0.5;entryY=1;entryDx=0;entryDy=0;" edge="1" parent="1" source="oHiZlL5Amw6MgKZXLNVU-254" target="oHiZlL5Amw6MgKZXLNVU-257">
          <mxGeometry relative="1" as="geometry">
            <Array as="points">
              <mxPoint x="560" y="160" />
              <mxPoint x="520" y="160" />
            </Array>
          </mxGeometry>
        </mxCell>
        <mxCell id="oHiZlL5Amw6MgKZXLNVU-261" style="edgeStyle=orthogonalEdgeStyle;rounded=0;orthogonalLoop=1;jettySize=auto;html=1;exitX=0.5;exitY=0;exitDx=0;exitDy=0;entryX=0.5;entryY=1;entryDx=0;entryDy=0;" edge="1" parent="1" source="oHiZlL5Amw6MgKZXLNVU-254" target="oHiZlL5Amw6MgKZXLNVU-258">
          <mxGeometry relative="1" as="geometry">
            <Array as="points">
              <mxPoint x="560" y="160" />
              <mxPoint x="600" y="160" />
            </Array>
          </mxGeometry>
        </mxCell>
        <mxCell id="oHiZlL5Amw6MgKZXLNVU-254" value="State: &amp;gt;" style="rounded=1;whiteSpace=wrap;html=1;" vertex="1" parent="1">
          <mxGeometry x="520" y="240" width="80" height="80" as="geometry" />
        </mxCell>
        <mxCell id="oHiZlL5Amw6MgKZXLNVU-256" value="&quot;=&quot;/T&amp;gt;=" style="text;html=1;align=center;verticalAlign=middle;whiteSpace=wrap;rounded=0;" vertex="1" parent="1">
          <mxGeometry x="480" y="100" width="40" height="40" as="geometry" />
        </mxCell>
        <mxCell id="oHiZlL5Amw6MgKZXLNVU-257" value="" style="ellipse;whiteSpace=wrap;html=1;aspect=fixed;" vertex="1" parent="1">
          <mxGeometry x="510" y="80" width="20" height="20" as="geometry" />
        </mxCell>
        <mxCell id="oHiZlL5Amw6MgKZXLNVU-258" value="" style="ellipse;whiteSpace=wrap;html=1;aspect=fixed;" vertex="1" parent="1">
          <mxGeometry x="590" y="80" width="20" height="20" as="geometry" />
        </mxCell>
        <mxCell id="oHiZlL5Amw6MgKZXLNVU-259" value="else/&lt;br&gt;-T&amp;gt;" style="text;html=1;align=center;verticalAlign=middle;whiteSpace=wrap;rounded=0;" vertex="1" parent="1">
          <mxGeometry x="560" y="100" width="40" height="40" as="geometry" />
        </mxCell>
        <mxCell id="oHiZlL5Amw6MgKZXLNVU-272" style="edgeStyle=orthogonalEdgeStyle;rounded=0;orthogonalLoop=1;jettySize=auto;html=1;exitX=0.5;exitY=0;exitDx=0;exitDy=0;entryX=0.5;entryY=1;entryDx=0;entryDy=0;" edge="1" parent="1" source="oHiZlL5Amw6MgKZXLNVU-262" target="oHiZlL5Amw6MgKZXLNVU-269">
          <mxGeometry relative="1" as="geometry">
            <Array as="points">
              <mxPoint x="720" y="160" />
              <mxPoint x="680" y="160" />
            </Array>
          </mxGeometry>
        </mxCell>
        <mxCell id="oHiZlL5Amw6MgKZXLNVU-273" style="edgeStyle=orthogonalEdgeStyle;rounded=0;orthogonalLoop=1;jettySize=auto;html=1;exitX=0.5;exitY=0;exitDx=0;exitDy=0;entryX=0.5;entryY=1;entryDx=0;entryDy=0;" edge="1" parent="1" source="oHiZlL5Amw6MgKZXLNVU-262" target="oHiZlL5Amw6MgKZXLNVU-270">
          <mxGeometry relative="1" as="geometry">
            <Array as="points">
              <mxPoint x="720" y="160" />
              <mxPoint x="760" y="160" />
            </Array>
          </mxGeometry>
        </mxCell>
        <mxCell id="oHiZlL5Amw6MgKZXLNVU-262" value="State: =" style="rounded=1;whiteSpace=wrap;html=1;" vertex="1" parent="1">
          <mxGeometry x="680" y="240" width="80" height="80" as="geometry" />
        </mxCell>
        <mxCell id="oHiZlL5Amw6MgKZXLNVU-263" value="" style="ellipse;whiteSpace=wrap;html=1;aspect=fixed;fillColor=#000000;" vertex="1" parent="1">
          <mxGeometry x="550" y="430" width="20" height="20" as="geometry" />
        </mxCell>
        <mxCell id="oHiZlL5Amw6MgKZXLNVU-265" value="" style="ellipse;whiteSpace=wrap;html=1;aspect=fixed;fillColor=#000000;" vertex="1" parent="1">
          <mxGeometry x="710" y="430" width="20" height="20" as="geometry" />
        </mxCell>
        <mxCell id="oHiZlL5Amw6MgKZXLNVU-268" value="&quot;=&quot;/T==" style="text;html=1;align=center;verticalAlign=middle;whiteSpace=wrap;rounded=0;" vertex="1" parent="1">
          <mxGeometry x="640" y="100" width="40" height="40" as="geometry" />
        </mxCell>
        <mxCell id="oHiZlL5Amw6MgKZXLNVU-269" value="" style="ellipse;whiteSpace=wrap;html=1;aspect=fixed;" vertex="1" parent="1">
          <mxGeometry x="670" y="80" width="20" height="20" as="geometry" />
        </mxCell>
        <mxCell id="oHiZlL5Amw6MgKZXLNVU-270" value="" style="ellipse;whiteSpace=wrap;html=1;aspect=fixed;" vertex="1" parent="1">
          <mxGeometry x="750" y="80" width="20" height="20" as="geometry" />
        </mxCell>
        <mxCell id="oHiZlL5Amw6MgKZXLNVU-271" value="else/&lt;br&gt;-T=" style="text;html=1;align=center;verticalAlign=middle;whiteSpace=wrap;rounded=0;" vertex="1" parent="1">
          <mxGeometry x="720" y="100" width="40" height="40" as="geometry" />
        </mxCell>
        <mxCell id="oHiZlL5Amw6MgKZXLNVU-274" value="" style="ellipse;whiteSpace=wrap;html=1;aspect=fixed;fillColor=#000000;" vertex="1" parent="1">
          <mxGeometry x="710" y="150" width="20" height="20" as="geometry" />
        </mxCell>
        <mxCell id="oHiZlL5Amw6MgKZXLNVU-275" value="" style="ellipse;whiteSpace=wrap;html=1;aspect=fixed;fillColor=#000000;" vertex="1" parent="1">
          <mxGeometry x="550" y="150" width="20" height="20" as="geometry" />
        </mxCell>
        <mxCell id="oHiZlL5Amw6MgKZXLNVU-276" value="" style="ellipse;whiteSpace=wrap;html=1;aspect=fixed;fillColor=#000000;" vertex="1" parent="1">
          <mxGeometry x="390" y="150" width="20" height="20" as="geometry" />
        </mxCell>
        <mxCell id="oHiZlL5Amw6MgKZXLNVU-282" style="edgeStyle=orthogonalEdgeStyle;rounded=0;orthogonalLoop=1;jettySize=auto;html=1;exitX=0.5;exitY=0;exitDx=0;exitDy=0;entryX=0.5;entryY=1;entryDx=0;entryDy=0;" edge="1" parent="1" source="oHiZlL5Amw6MgKZXLNVU-277" target="oHiZlL5Amw6MgKZXLNVU-281">
          <mxGeometry relative="1" as="geometry" />
        </mxCell>
        <mxCell id="oHiZlL5Amw6MgKZXLNVU-285" style="edgeStyle=orthogonalEdgeStyle;rounded=0;orthogonalLoop=1;jettySize=auto;html=1;exitX=1;exitY=0.5;exitDx=0;exitDy=0;entryX=0.5;entryY=1;entryDx=0;entryDy=0;" edge="1" parent="1" source="oHiZlL5Amw6MgKZXLNVU-277" target="oHiZlL5Amw6MgKZXLNVU-284">
          <mxGeometry relative="1" as="geometry" />
        </mxCell>
        <mxCell id="oHiZlL5Amw6MgKZXLNVU-286" style="edgeStyle=orthogonalEdgeStyle;rounded=0;orthogonalLoop=1;jettySize=auto;html=1;exitX=1;exitY=0.5;exitDx=0;exitDy=0;entryX=0;entryY=0.5;entryDx=0;entryDy=0;" edge="1" parent="1" source="oHiZlL5Amw6MgKZXLNVU-287" target="oHiZlL5Amw6MgKZXLNVU-280">
          <mxGeometry relative="1" as="geometry" />
        </mxCell>
        <mxCell id="oHiZlL5Amw6MgKZXLNVU-290" style="edgeStyle=orthogonalEdgeStyle;rounded=0;orthogonalLoop=1;jettySize=auto;html=1;exitX=1;exitY=0.5;exitDx=0;exitDy=0;entryX=0.5;entryY=1;entryDx=0;entryDy=0;" edge="1" parent="1" source="oHiZlL5Amw6MgKZXLNVU-277" target="oHiZlL5Amw6MgKZXLNVU-291">
          <mxGeometry relative="1" as="geometry">
            <mxPoint x="959.9999999999995" y="110" as="targetPoint" />
          </mxGeometry>
        </mxCell>
        <mxCell id="oHiZlL5Amw6MgKZXLNVU-277" value="State: /" style="rounded=1;whiteSpace=wrap;html=1;" vertex="1" parent="1">
          <mxGeometry x="800" y="240" width="80" height="80" as="geometry" />
        </mxCell>
        <mxCell id="oHiZlL5Amw6MgKZXLNVU-279" value="" style="ellipse;whiteSpace=wrap;html=1;aspect=fixed;fillColor=#000000;" vertex="1" parent="1">
          <mxGeometry x="830" y="430" width="20" height="20" as="geometry" />
        </mxCell>
        <mxCell id="oHiZlL5Amw6MgKZXLNVU-296" style="edgeStyle=orthogonalEdgeStyle;rounded=0;orthogonalLoop=1;jettySize=auto;html=1;exitX=0.5;exitY=0;exitDx=0;exitDy=0;entryX=0.5;entryY=1;entryDx=0;entryDy=0;" edge="1" parent="1" source="oHiZlL5Amw6MgKZXLNVU-280" target="oHiZlL5Amw6MgKZXLNVU-295">
          <mxGeometry relative="1" as="geometry" />
        </mxCell>
        <mxCell id="oHiZlL5Amw6MgKZXLNVU-299" style="edgeStyle=orthogonalEdgeStyle;rounded=0;orthogonalLoop=1;jettySize=auto;html=1;exitX=1;exitY=0.5;exitDx=0;exitDy=0;entryX=0;entryY=0.5;entryDx=0;entryDy=0;" edge="1" parent="1" source="oHiZlL5Amw6MgKZXLNVU-280" target="oHiZlL5Amw6MgKZXLNVU-298">
          <mxGeometry relative="1" as="geometry" />
        </mxCell>
        <mxCell id="oHiZlL5Amw6MgKZXLNVU-280" value="SWITCH(c)" style="rhombus;whiteSpace=wrap;html=1;" vertex="1" parent="1">
          <mxGeometry x="1000" y="240" width="80" height="80" as="geometry" />
        </mxCell>
        <mxCell id="oHiZlL5Amw6MgKZXLNVU-281" value="LEXICAL ERROR" style="shape=hexagon;perimeter=hexagonPerimeter2;whiteSpace=wrap;html=1;fixedSize=1;fillColor=#FF9933;" vertex="1" parent="1">
          <mxGeometry x="800" y="160" width="80" height="40" as="geometry" />
        </mxCell>
        <mxCell id="oHiZlL5Amw6MgKZXLNVU-283" value="X/" style="text;html=1;align=center;verticalAlign=middle;whiteSpace=wrap;rounded=0;" vertex="1" parent="1">
          <mxGeometry x="800" y="200" width="40" height="40" as="geometry" />
        </mxCell>
        <mxCell id="oHiZlL5Amw6MgKZXLNVU-284" value="" style="ellipse;whiteSpace=wrap;html=1;aspect=fixed;" vertex="1" parent="1">
          <mxGeometry x="910" y="80" width="20" height="20" as="geometry" />
        </mxCell>
        <mxCell id="oHiZlL5Amw6MgKZXLNVU-287" value="" style="ellipse;whiteSpace=wrap;html=1;aspect=fixed;fillColor=#000000;" vertex="1" parent="1">
          <mxGeometry x="910" y="270" width="20" height="20" as="geometry" />
        </mxCell>
        <mxCell id="oHiZlL5Amw6MgKZXLNVU-289" value="" style="ellipse;whiteSpace=wrap;html=1;aspect=fixed;fillColor=#000000;" vertex="1" parent="1">
          <mxGeometry x="950" y="270" width="20" height="20" as="geometry" />
        </mxCell>
        <mxCell id="oHiZlL5Amw6MgKZXLNVU-291" value="" style="ellipse;whiteSpace=wrap;html=1;aspect=fixed;" vertex="1" parent="1">
          <mxGeometry x="950" y="80" width="20" height="20" as="geometry" />
        </mxCell>
        <mxCell id="oHiZlL5Amw6MgKZXLNVU-292" value="W/T/" style="text;html=1;align=center;verticalAlign=middle;whiteSpace=wrap;rounded=0;" vertex="1" parent="1">
          <mxGeometry x="880" y="110" width="40" height="40" as="geometry" />
        </mxCell>
        <mxCell id="oHiZlL5Amw6MgKZXLNVU-293" value="else/&lt;br&gt;-T/" style="text;html=1;align=center;verticalAlign=middle;whiteSpace=wrap;rounded=0;" vertex="1" parent="1">
          <mxGeometry x="920" y="110" width="40" height="40" as="geometry" />
        </mxCell>
        <mxCell id="oHiZlL5Amw6MgKZXLNVU-294" value="C/" style="text;html=1;align=center;verticalAlign=middle;whiteSpace=wrap;rounded=0;" vertex="1" parent="1">
          <mxGeometry x="960" y="240" width="40" height="40" as="geometry" />
        </mxCell>
        <mxCell id="oHiZlL5Amw6MgKZXLNVU-295" value="" style="ellipse;whiteSpace=wrap;html=1;aspect=fixed;" vertex="1" parent="1">
          <mxGeometry x="1030" y="80" width="20" height="20" as="geometry" />
        </mxCell>
        <mxCell id="oHiZlL5Amw6MgKZXLNVU-297" value="else/&lt;br&gt;-T/" style="text;html=1;align=center;verticalAlign=middle;whiteSpace=wrap;rounded=0;" vertex="1" parent="1">
          <mxGeometry x="1000" y="110" width="40" height="40" as="geometry" />
        </mxCell>
        <mxCell id="oHiZlL5Amw6MgKZXLNVU-304" style="edgeStyle=orthogonalEdgeStyle;rounded=0;orthogonalLoop=1;jettySize=auto;html=1;exitX=1;exitY=0.5;exitDx=0;exitDy=0;entryX=0;entryY=0.5;entryDx=0;entryDy=0;" edge="1" parent="1" source="oHiZlL5Amw6MgKZXLNVU-298" target="oHiZlL5Amw6MgKZXLNVU-303">
          <mxGeometry relative="1" as="geometry" />
        </mxCell>
        <mxCell id="oHiZlL5Amw6MgKZXLNVU-311" style="edgeStyle=orthogonalEdgeStyle;rounded=0;orthogonalLoop=1;jettySize=auto;html=1;exitX=0.5;exitY=0;exitDx=0;exitDy=0;entryX=0.5;entryY=1;entryDx=0;entryDy=0;" edge="1" parent="1" source="oHiZlL5Amw6MgKZXLNVU-298" target="oHiZlL5Amw6MgKZXLNVU-310">
          <mxGeometry relative="1" as="geometry" />
        </mxCell>
        <mxCell id="oHiZlL5Amw6MgKZXLNVU-298" value="State: //" style="rounded=1;whiteSpace=wrap;html=1;" vertex="1" parent="1">
          <mxGeometry x="1120" y="240" width="80" height="80" as="geometry" />
        </mxCell>
        <mxCell id="oHiZlL5Amw6MgKZXLNVU-300" value="&quot;/&quot;/" style="text;html=1;align=center;verticalAlign=middle;whiteSpace=wrap;rounded=0;" vertex="1" parent="1">
          <mxGeometry x="1080" y="240" width="40" height="40" as="geometry" />
        </mxCell>
        <mxCell id="oHiZlL5Amw6MgKZXLNVU-301" value="" style="curved=1;endArrow=classic;html=1;rounded=0;exitX=0.5;exitY=1;exitDx=0;exitDy=0;strokeColor=#000000;entryX=1;entryY=0.75;entryDx=0;entryDy=0;" edge="1" parent="1" source="oHiZlL5Amw6MgKZXLNVU-303" target="oHiZlL5Amw6MgKZXLNVU-298">
          <mxGeometry width="50" height="50" relative="1" as="geometry">
            <mxPoint x="1320" y="420" as="sourcePoint" />
            <mxPoint x="1360" y="420" as="targetPoint" />
            <Array as="points">
              <mxPoint x="1240" y="410" />
            </Array>
          </mxGeometry>
        </mxCell>
        <mxCell id="oHiZlL5Amw6MgKZXLNVU-302" value="W/" style="text;html=1;align=center;verticalAlign=middle;whiteSpace=wrap;rounded=0;" vertex="1" parent="1">
          <mxGeometry x="1200" y="240" width="40" height="40" as="geometry" />
        </mxCell>
        <mxCell id="oHiZlL5Amw6MgKZXLNVU-306" style="edgeStyle=orthogonalEdgeStyle;rounded=0;orthogonalLoop=1;jettySize=auto;html=1;exitX=0.5;exitY=0;exitDx=0;exitDy=0;entryX=0.5;entryY=1;entryDx=0;entryDy=0;" edge="1" parent="1" source="oHiZlL5Amw6MgKZXLNVU-303" target="oHiZlL5Amw6MgKZXLNVU-305">
          <mxGeometry relative="1" as="geometry" />
        </mxCell>
        <mxCell id="oHiZlL5Amw6MgKZXLNVU-303" value="SWITCH(c)" style="rhombus;whiteSpace=wrap;html=1;" vertex="1" parent="1">
          <mxGeometry x="1240" y="240" width="80" height="80" as="geometry" />
        </mxCell>
        <mxCell id="oHiZlL5Amw6MgKZXLNVU-305" value="" style="ellipse;whiteSpace=wrap;html=1;aspect=fixed;" vertex="1" parent="1">
          <mxGeometry x="1270" y="80" width="20" height="20" as="geometry" />
        </mxCell>
        <mxCell id="oHiZlL5Amw6MgKZXLNVU-307" value="(LF)/&lt;br&gt;reset" style="text;html=1;align=center;verticalAlign=middle;whiteSpace=wrap;rounded=0;" vertex="1" parent="1">
          <mxGeometry x="1240" y="100" width="40" height="40" as="geometry" />
        </mxCell>
        <mxCell id="oHiZlL5Amw6MgKZXLNVU-309" value="else/" style="text;html=1;align=center;verticalAlign=middle;whiteSpace=wrap;rounded=0;" vertex="1" parent="1">
          <mxGeometry x="1220" y="320" width="40" height="40" as="geometry" />
        </mxCell>
        <mxCell id="oHiZlL5Amw6MgKZXLNVU-310" value="" style="ellipse;whiteSpace=wrap;html=1;aspect=fixed;" vertex="1" parent="1">
          <mxGeometry x="1150" y="80" width="20" height="20" as="geometry" />
        </mxCell>
        <mxCell id="oHiZlL5Amw6MgKZXLNVU-312" value="" style="curved=1;endArrow=classic;html=1;rounded=0;exitX=0.75;exitY=1;exitDx=0;exitDy=0;strokeColor=#000000;entryX=0.25;entryY=1;entryDx=0;entryDy=0;" edge="1" parent="1" source="oHiZlL5Amw6MgKZXLNVU-298" target="oHiZlL5Amw6MgKZXLNVU-298">
          <mxGeometry width="50" height="50" relative="1" as="geometry">
            <mxPoint x="1200" y="360" as="sourcePoint" />
            <mxPoint x="1120" y="340" as="targetPoint" />
            <Array as="points">
              <mxPoint x="1160" y="400" />
            </Array>
          </mxGeometry>
        </mxCell>
        <mxCell id="oHiZlL5Amw6MgKZXLNVU-313" value="else/" style="text;html=1;align=center;verticalAlign=middle;whiteSpace=wrap;rounded=0;" vertex="1" parent="1">
          <mxGeometry x="1140" y="320" width="40" height="40" as="geometry" />
        </mxCell>
        <mxCell id="oHiZlL5Amw6MgKZXLNVU-314" value="E/&lt;br&gt;-reset" style="text;html=1;align=center;verticalAlign=middle;whiteSpace=wrap;rounded=0;" vertex="1" parent="1">
          <mxGeometry x="1120" y="100" width="40" height="40" as="geometry" />
        </mxCell>
        <mxCell id="oHiZlL5Amw6MgKZXLNVU-325" style="edgeStyle=orthogonalEdgeStyle;rounded=0;orthogonalLoop=1;jettySize=auto;html=1;exitX=0.75;exitY=0;exitDx=0;exitDy=0;entryX=0;entryY=0.5;entryDx=0;entryDy=0;" edge="1" parent="1" source="oHiZlL5Amw6MgKZXLNVU-315" target="oHiZlL5Amw6MgKZXLNVU-323">
          <mxGeometry relative="1" as="geometry">
            <Array as="points">
              <mxPoint x="1430" y="240" />
              <mxPoint x="1470" y="240" />
              <mxPoint x="1470" y="280" />
            </Array>
          </mxGeometry>
        </mxCell>
        <mxCell id="oHiZlL5Amw6MgKZXLNVU-331" style="edgeStyle=orthogonalEdgeStyle;rounded=0;orthogonalLoop=1;jettySize=auto;html=1;exitX=0.5;exitY=0;exitDx=0;exitDy=0;entryX=0.5;entryY=1;entryDx=0;entryDy=0;" edge="1" parent="1" source="oHiZlL5Amw6MgKZXLNVU-315" target="oHiZlL5Amw6MgKZXLNVU-329">
          <mxGeometry relative="1" as="geometry" />
        </mxCell>
        <mxCell id="oHiZlL5Amw6MgKZXLNVU-315" value="State: @" style="rounded=1;whiteSpace=wrap;html=1;" vertex="1" parent="1">
          <mxGeometry x="1370" y="280" width="80" height="80" as="geometry" />
        </mxCell>
        <mxCell id="oHiZlL5Amw6MgKZXLNVU-317" value="" style="ellipse;whiteSpace=wrap;html=1;aspect=fixed;fillColor=#000000;" vertex="1" parent="1">
          <mxGeometry x="1400" y="430" width="20" height="20" as="geometry" />
        </mxCell>
        <mxCell id="oHiZlL5Amw6MgKZXLNVU-320" value="" style="curved=1;endArrow=classic;html=1;rounded=0;exitX=1;exitY=0.75;exitDx=0;exitDy=0;strokeColor=#000000;entryX=1;entryY=0.25;entryDx=0;entryDy=0;" edge="1" parent="1" source="oHiZlL5Amw6MgKZXLNVU-315" target="oHiZlL5Amw6MgKZXLNVU-315">
          <mxGeometry width="50" height="50" relative="1" as="geometry">
            <mxPoint x="1630" y="310" as="sourcePoint" />
            <mxPoint x="1590" y="310" as="targetPoint" />
            <Array as="points">
              <mxPoint x="1590" y="320" />
            </Array>
          </mxGeometry>
        </mxCell>
        <mxCell id="oHiZlL5Amw6MgKZXLNVU-321" value="L/" style="text;html=1;align=center;verticalAlign=middle;whiteSpace=wrap;rounded=0;" vertex="1" parent="1">
          <mxGeometry x="1450" y="300" width="40" height="40" as="geometry" />
        </mxCell>
        <mxCell id="oHiZlL5Amw6MgKZXLNVU-323" value="LEXICAL ERROR" style="shape=hexagon;perimeter=hexagonPerimeter2;whiteSpace=wrap;html=1;fixedSize=1;fillColor=#FF9933;" vertex="1" parent="1">
          <mxGeometry x="1490" y="260" width="80" height="40" as="geometry" />
        </mxCell>
        <mxCell id="oHiZlL5Amw6MgKZXLNVU-324" value="X/" style="text;html=1;align=center;verticalAlign=middle;whiteSpace=wrap;rounded=0;" vertex="1" parent="1">
          <mxGeometry x="1430" y="240" width="40" height="40" as="geometry" />
        </mxCell>
        <mxCell id="oHiZlL5Amw6MgKZXLNVU-326" value="W/&lt;br&gt;else/-" style="text;html=1;align=center;verticalAlign=middle;whiteSpace=wrap;rounded=0;" vertex="1" parent="1">
          <mxGeometry x="1370" y="240" width="40" height="40" as="geometry" />
        </mxCell>
        <mxCell id="oHiZlL5Amw6MgKZXLNVU-327" value="" style="ellipse;whiteSpace=wrap;html=1;aspect=fixed;" vertex="1" parent="1">
          <mxGeometry x="1400" y="80" width="20" height="20" as="geometry" />
        </mxCell>
        <mxCell id="oHiZlL5Amw6MgKZXLNVU-330" style="edgeStyle=orthogonalEdgeStyle;rounded=0;orthogonalLoop=1;jettySize=auto;html=1;exitX=0.5;exitY=0;exitDx=0;exitDy=0;entryX=0.5;entryY=1;entryDx=0;entryDy=0;" edge="1" parent="1" source="oHiZlL5Amw6MgKZXLNVU-329" target="oHiZlL5Amw6MgKZXLNVU-327">
          <mxGeometry relative="1" as="geometry" />
        </mxCell>
        <mxCell id="oHiZlL5Amw6MgKZXLNVU-334" style="edgeStyle=orthogonalEdgeStyle;rounded=0;orthogonalLoop=1;jettySize=auto;html=1;exitX=1;exitY=0.5;exitDx=0;exitDy=0;entryX=0;entryY=0.5;entryDx=0;entryDy=0;" edge="1" parent="1" source="oHiZlL5Amw6MgKZXLNVU-329" target="oHiZlL5Amw6MgKZXLNVU-333">
          <mxGeometry relative="1" as="geometry" />
        </mxCell>
        <mxCell id="oHiZlL5Amw6MgKZXLNVU-329" value="SWITCH(str)" style="rhombus;whiteSpace=wrap;html=1;" vertex="1" parent="1">
          <mxGeometry x="1370" y="140" width="80" height="80" as="geometry" />
        </mxCell>
        <mxCell id="oHiZlL5Amw6MgKZXLNVU-332" value="&quot;import&quot;/&lt;div&gt;Timport&lt;/div&gt;" style="text;html=1;align=center;verticalAlign=middle;whiteSpace=wrap;rounded=0;" vertex="1" parent="1">
          <mxGeometry x="1360" y="100" width="50" height="40" as="geometry" />
        </mxCell>
        <mxCell id="oHiZlL5Amw6MgKZXLNVU-333" value="LEXICAL ERROR" style="shape=hexagon;perimeter=hexagonPerimeter2;whiteSpace=wrap;html=1;fixedSize=1;fillColor=#FF9933;" vertex="1" parent="1">
          <mxGeometry x="1490" y="160" width="80" height="40" as="geometry" />
        </mxCell>
        <mxCell id="oHiZlL5Amw6MgKZXLNVU-335" value="else/" style="text;html=1;align=center;verticalAlign=middle;whiteSpace=wrap;rounded=0;" vertex="1" parent="1">
          <mxGeometry x="1450" y="140" width="40" height="40" as="geometry" />
        </mxCell>
        <mxCell id="oHiZlL5Amw6MgKZXLNVU-351" style="edgeStyle=orthogonalEdgeStyle;rounded=0;orthogonalLoop=1;jettySize=auto;html=1;exitX=0.5;exitY=0;exitDx=0;exitDy=0;entryX=0.5;entryY=1;entryDx=0;entryDy=0;" edge="1" parent="1" source="oHiZlL5Amw6MgKZXLNVU-337" target="oHiZlL5Amw6MgKZXLNVU-350">
          <mxGeometry relative="1" as="geometry" />
        </mxCell>
        <mxCell id="oHiZlL5Amw6MgKZXLNVU-363" style="edgeStyle=orthogonalEdgeStyle;rounded=0;orthogonalLoop=1;jettySize=auto;html=1;exitX=0.75;exitY=0;exitDx=0;exitDy=0;entryX=0;entryY=0.5;entryDx=0;entryDy=0;" edge="1" parent="1" source="oHiZlL5Amw6MgKZXLNVU-337" target="70BZq5WN445ztoxM5un6-433">
          <mxGeometry relative="1" as="geometry" />
        </mxCell>
        <mxCell id="oHiZlL5Amw6MgKZXLNVU-337" value="State: [" style="rounded=1;whiteSpace=wrap;html=1;" vertex="1" parent="1">
          <mxGeometry x="1600" y="280" width="80" height="80" as="geometry" />
        </mxCell>
        <mxCell id="oHiZlL5Amw6MgKZXLNVU-339" style="edgeStyle=orthogonalEdgeStyle;rounded=0;orthogonalLoop=1;jettySize=auto;html=1;exitX=0;exitY=0;exitDx=0;exitDy=0;entryX=0.5;entryY=0;entryDx=0;entryDy=0;" edge="1" parent="1" source="oHiZlL5Amw6MgKZXLNVU-317" target="oHiZlL5Amw6MgKZXLNVU-317">
          <mxGeometry relative="1" as="geometry" />
        </mxCell>
        <mxCell id="oHiZlL5Amw6MgKZXLNVU-340" value="" style="ellipse;whiteSpace=wrap;html=1;aspect=fixed;fillColor=#000000;" vertex="1" parent="1">
          <mxGeometry x="1630" y="430" width="20" height="20" as="geometry" />
        </mxCell>
        <mxCell id="oHiZlL5Amw6MgKZXLNVU-343" value="&quot;&amp;lt;&quot;/" style="text;html=1;align=center;verticalAlign=middle;whiteSpace=wrap;rounded=0;" vertex="1" parent="1">
          <mxGeometry x="360" y="320" width="40" height="40" as="geometry" />
        </mxCell>
        <mxCell id="oHiZlL5Amw6MgKZXLNVU-344" value="&quot;&amp;gt;&quot;/" style="text;html=1;align=center;verticalAlign=middle;whiteSpace=wrap;rounded=0;" vertex="1" parent="1">
          <mxGeometry x="520" y="320" width="40" height="40" as="geometry" />
        </mxCell>
        <mxCell id="oHiZlL5Amw6MgKZXLNVU-345" value="&quot;=&quot;/" style="text;html=1;align=center;verticalAlign=middle;whiteSpace=wrap;rounded=0;" vertex="1" parent="1">
          <mxGeometry x="680" y="320" width="40" height="40" as="geometry" />
        </mxCell>
        <mxCell id="oHiZlL5Amw6MgKZXLNVU-346" value="&quot;/&quot;/" style="text;html=1;align=center;verticalAlign=middle;whiteSpace=wrap;rounded=0;" vertex="1" parent="1">
          <mxGeometry x="800" y="320" width="40" height="40" as="geometry" />
        </mxCell>
        <mxCell id="oHiZlL5Amw6MgKZXLNVU-347" value="&quot;@&quot;/" style="text;html=1;align=center;verticalAlign=middle;whiteSpace=wrap;rounded=0;" vertex="1" parent="1">
          <mxGeometry x="1370" y="360" width="40" height="40" as="geometry" />
        </mxCell>
        <mxCell id="oHiZlL5Amw6MgKZXLNVU-348" value="" style="curved=1;endArrow=classic;html=1;rounded=0;entryX=1;entryY=0.75;entryDx=0;entryDy=0;exitX=1;exitY=0.25;exitDx=0;exitDy=0;" edge="1" parent="1" source="oHiZlL5Amw6MgKZXLNVU-337" target="oHiZlL5Amw6MgKZXLNVU-337">
          <mxGeometry width="50" height="50" relative="1" as="geometry">
            <mxPoint x="1850" y="310" as="sourcePoint" />
            <mxPoint x="1850" y="330" as="targetPoint" />
            <Array as="points">
              <mxPoint x="1830" y="320" />
            </Array>
          </mxGeometry>
        </mxCell>
        <mxCell id="oHiZlL5Amw6MgKZXLNVU-349" value="W/" style="text;html=1;align=center;verticalAlign=middle;whiteSpace=wrap;rounded=0;" vertex="1" parent="1">
          <mxGeometry x="1680" y="300" width="40" height="40" as="geometry" />
        </mxCell>
        <mxCell id="oHiZlL5Amw6MgKZXLNVU-357" style="edgeStyle=orthogonalEdgeStyle;rounded=0;orthogonalLoop=1;jettySize=auto;html=1;exitX=0.5;exitY=0;exitDx=0;exitDy=0;entryX=0.5;entryY=1;entryDx=0;entryDy=0;" edge="1" parent="1" source="oHiZlL5Amw6MgKZXLNVU-350" target="oHiZlL5Amw6MgKZXLNVU-353">
          <mxGeometry relative="1" as="geometry" />
        </mxCell>
        <mxCell id="oHiZlL5Amw6MgKZXLNVU-367" style="edgeStyle=orthogonalEdgeStyle;rounded=0;orthogonalLoop=1;jettySize=auto;html=1;exitX=0.75;exitY=0;exitDx=0;exitDy=0;entryX=0;entryY=0.5;entryDx=0;entryDy=0;" edge="1" parent="1" source="oHiZlL5Amw6MgKZXLNVU-350" target="oHiZlL5Amw6MgKZXLNVU-364">
          <mxGeometry relative="1" as="geometry" />
        </mxCell>
        <mxCell id="oHiZlL5Amw6MgKZXLNVU-350" value="State: [ ]" style="rounded=1;whiteSpace=wrap;html=1;" vertex="1" parent="1">
          <mxGeometry x="1620" y="200" width="40" height="40" as="geometry" />
        </mxCell>
        <mxCell id="oHiZlL5Amw6MgKZXLNVU-352" value="&quot;]&quot;/" style="text;html=1;align=center;verticalAlign=middle;whiteSpace=wrap;rounded=0;" vertex="1" parent="1">
          <mxGeometry x="1600" y="240" width="40" height="40" as="geometry" />
        </mxCell>
        <mxCell id="oHiZlL5Amw6MgKZXLNVU-358" style="edgeStyle=orthogonalEdgeStyle;rounded=0;orthogonalLoop=1;jettySize=auto;html=1;exitX=0.5;exitY=0;exitDx=0;exitDy=0;entryX=0.5;entryY=1;entryDx=0;entryDy=0;" edge="1" parent="1" source="oHiZlL5Amw6MgKZXLNVU-353" target="oHiZlL5Amw6MgKZXLNVU-356">
          <mxGeometry relative="1" as="geometry" />
        </mxCell>
        <mxCell id="oHiZlL5Amw6MgKZXLNVU-366" style="edgeStyle=orthogonalEdgeStyle;rounded=0;orthogonalLoop=1;jettySize=auto;html=1;exitX=1;exitY=0.5;exitDx=0;exitDy=0;entryX=0;entryY=0.5;entryDx=0;entryDy=0;" edge="1" parent="1" source="oHiZlL5Amw6MgKZXLNVU-353" target="oHiZlL5Amw6MgKZXLNVU-365">
          <mxGeometry relative="1" as="geometry" />
        </mxCell>
        <mxCell id="oHiZlL5Amw6MgKZXLNVU-353" value="State: [ ] u" style="rounded=1;whiteSpace=wrap;html=1;" vertex="1" parent="1">
          <mxGeometry x="1620" y="120" width="40" height="40" as="geometry" />
        </mxCell>
        <mxCell id="oHiZlL5Amw6MgKZXLNVU-355" value="&quot;u&quot;/" style="text;html=1;align=center;verticalAlign=middle;whiteSpace=wrap;rounded=0;" vertex="1" parent="1">
          <mxGeometry x="1600" y="160" width="40" height="40" as="geometry" />
        </mxCell>
        <mxCell id="oHiZlL5Amw6MgKZXLNVU-356" value="" style="ellipse;whiteSpace=wrap;html=1;aspect=fixed;" vertex="1" parent="1">
          <mxGeometry x="1630" y="80" width="20" height="20" as="geometry" />
        </mxCell>
        <mxCell id="oHiZlL5Amw6MgKZXLNVU-359" value="&quot;8&quot;/&lt;br&gt;Tu8" style="text;html=1;align=center;verticalAlign=middle;whiteSpace=wrap;rounded=0;" vertex="1" parent="1">
          <mxGeometry x="1600" y="80" width="40" height="40" as="geometry" />
        </mxCell>
        <mxCell id="oHiZlL5Amw6MgKZXLNVU-360" value="" style="curved=1;endArrow=classic;html=1;rounded=0;entryX=1;entryY=0.75;entryDx=0;entryDy=0;exitX=1;exitY=0.25;exitDx=0;exitDy=0;" edge="1" parent="1" source="oHiZlL5Amw6MgKZXLNVU-350" target="oHiZlL5Amw6MgKZXLNVU-350">
          <mxGeometry width="50" height="50" relative="1" as="geometry">
            <mxPoint x="1700" y="200" as="sourcePoint" />
            <mxPoint x="1700" y="240" as="targetPoint" />
            <Array as="points">
              <mxPoint x="1770" y="220" />
            </Array>
          </mxGeometry>
        </mxCell>
        <mxCell id="oHiZlL5Amw6MgKZXLNVU-361" value="W/" style="text;html=1;align=center;verticalAlign=middle;whiteSpace=wrap;rounded=0;" vertex="1" parent="1">
          <mxGeometry x="1680" y="180" width="40" height="40" as="geometry" />
        </mxCell>
        <mxCell id="oHiZlL5Amw6MgKZXLNVU-364" value="LEXICAL ERROR" style="shape=hexagon;perimeter=hexagonPerimeter2;whiteSpace=wrap;html=1;fixedSize=1;fillColor=#FF9933;" vertex="1" parent="1">
          <mxGeometry x="1720" y="160" width="80" height="40" as="geometry" />
        </mxCell>
        <mxCell id="oHiZlL5Amw6MgKZXLNVU-365" value="LEXICAL ERROR" style="shape=hexagon;perimeter=hexagonPerimeter2;whiteSpace=wrap;html=1;fixedSize=1;fillColor=#FF9933;" vertex="1" parent="1">
          <mxGeometry x="1720" y="120" width="80" height="40" as="geometry" />
        </mxCell>
        <mxCell id="oHiZlL5Amw6MgKZXLNVU-368" value="else/" style="text;html=1;align=center;verticalAlign=middle;whiteSpace=wrap;rounded=0;" vertex="1" parent="1">
          <mxGeometry x="1680" y="100" width="40" height="40" as="geometry" />
        </mxCell>
        <mxCell id="oHiZlL5Amw6MgKZXLNVU-369" value="else/" style="text;html=1;align=center;verticalAlign=middle;whiteSpace=wrap;rounded=0;" vertex="1" parent="1">
          <mxGeometry x="1680" y="140" width="40" height="40" as="geometry" />
        </mxCell>
        <mxCell id="oHiZlL5Amw6MgKZXLNVU-370" value="else/" style="text;html=1;align=center;verticalAlign=middle;whiteSpace=wrap;rounded=0;" vertex="1" parent="1">
          <mxGeometry x="1680" y="220" width="40" height="40" as="geometry" />
        </mxCell>
        <mxCell id="oHiZlL5Amw6MgKZXLNVU-406" value="&lt;font style=&quot;font-size: 10px;&quot;&gt;W/&lt;/font&gt;" style="text;html=1;align=center;verticalAlign=middle;whiteSpace=wrap;rounded=0;" vertex="1" parent="1">
          <mxGeometry x="1940" y="90" width="40" height="40" as="geometry" />
        </mxCell>
        <mxCell id="oHiZlL5Amw6MgKZXLNVU-414" style="edgeStyle=orthogonalEdgeStyle;rounded=0;orthogonalLoop=1;jettySize=auto;html=1;exitX=0;exitY=0.5;exitDx=0;exitDy=0;entryX=0;entryY=0.5;entryDx=0;entryDy=0;" edge="1" parent="1" source="oHiZlL5Amw6MgKZXLNVU-409" target="oHiZlL5Amw6MgKZXLNVU-411">
          <mxGeometry relative="1" as="geometry" />
        </mxCell>
        <mxCell id="oHiZlL5Amw6MgKZXLNVU-421" style="edgeStyle=orthogonalEdgeStyle;rounded=0;orthogonalLoop=1;jettySize=auto;html=1;exitX=0;exitY=0.5;exitDx=0;exitDy=0;entryX=0;entryY=0.5;entryDx=0;entryDy=0;" edge="1" parent="1" source="oHiZlL5Amw6MgKZXLNVU-409" target="oHiZlL5Amw6MgKZXLNVU-413">
          <mxGeometry relative="1" as="geometry" />
        </mxCell>
        <mxCell id="oHiZlL5Amw6MgKZXLNVU-433" style="edgeStyle=orthogonalEdgeStyle;rounded=0;orthogonalLoop=1;jettySize=auto;html=1;exitX=0;exitY=0.5;exitDx=0;exitDy=0;entryX=0;entryY=0.5;entryDx=0;entryDy=0;" edge="1" parent="1" source="oHiZlL5Amw6MgKZXLNVU-409" target="oHiZlL5Amw6MgKZXLNVU-412">
          <mxGeometry relative="1" as="geometry" />
        </mxCell>
        <mxCell id="oHiZlL5Amw6MgKZXLNVU-409" value="State: ?" style="rounded=1;whiteSpace=wrap;html=1;" vertex="1" parent="1">
          <mxGeometry x="1880" y="280" width="160" height="80" as="geometry" />
        </mxCell>
        <mxCell id="oHiZlL5Amw6MgKZXLNVU-410" value="&quot;?&quot;/" style="text;html=1;align=center;verticalAlign=middle;whiteSpace=wrap;rounded=0;" vertex="1" parent="1">
          <mxGeometry x="1920" y="360" width="40" height="40" as="geometry" />
        </mxCell>
        <mxCell id="oHiZlL5Amw6MgKZXLNVU-444" style="edgeStyle=orthogonalEdgeStyle;rounded=0;orthogonalLoop=1;jettySize=auto;html=1;exitX=1;exitY=0.5;exitDx=0;exitDy=0;entryX=0;entryY=0.5;entryDx=0;entryDy=0;" edge="1" parent="1" source="oHiZlL5Amw6MgKZXLNVU-411" target="oHiZlL5Amw6MgKZXLNVU-439">
          <mxGeometry relative="1" as="geometry" />
        </mxCell>
        <mxCell id="oHiZlL5Amw6MgKZXLNVU-411" value="&#39;?i&#39;" style="rounded=1;whiteSpace=wrap;html=1;" vertex="1" parent="1">
          <mxGeometry x="1920" y="230" width="40" height="40" as="geometry" />
        </mxCell>
        <mxCell id="oHiZlL5Amw6MgKZXLNVU-443" style="edgeStyle=orthogonalEdgeStyle;rounded=0;orthogonalLoop=1;jettySize=auto;html=1;exitX=1;exitY=0.5;exitDx=0;exitDy=0;entryX=0;entryY=0.5;entryDx=0;entryDy=0;" edge="1" parent="1" source="oHiZlL5Amw6MgKZXLNVU-412" target="oHiZlL5Amw6MgKZXLNVU-440">
          <mxGeometry relative="1" as="geometry" />
        </mxCell>
        <mxCell id="oHiZlL5Amw6MgKZXLNVU-412" value="&#39;?f&#39;" style="rounded=1;whiteSpace=wrap;html=1;" vertex="1" parent="1">
          <mxGeometry x="1920" y="180" width="40" height="40" as="geometry" />
        </mxCell>
        <mxCell id="oHiZlL5Amw6MgKZXLNVU-442" style="edgeStyle=orthogonalEdgeStyle;rounded=0;orthogonalLoop=1;jettySize=auto;html=1;exitX=1;exitY=0.5;exitDx=0;exitDy=0;entryX=0;entryY=0.5;entryDx=0;entryDy=0;" edge="1" parent="1" source="oHiZlL5Amw6MgKZXLNVU-413" target="oHiZlL5Amw6MgKZXLNVU-441">
          <mxGeometry relative="1" as="geometry" />
        </mxCell>
        <mxCell id="oHiZlL5Amw6MgKZXLNVU-413" value="&#39;?[&#39;" style="rounded=1;whiteSpace=wrap;html=1;" vertex="1" parent="1">
          <mxGeometry x="1920" y="130" width="40" height="40" as="geometry" />
        </mxCell>
        <mxCell id="oHiZlL5Amw6MgKZXLNVU-424" value="" style="ellipse;whiteSpace=wrap;html=1;aspect=fixed;fillColor=#000000;" vertex="1" parent="1">
          <mxGeometry x="1950" y="430" width="20" height="20" as="geometry" />
        </mxCell>
        <mxCell id="oHiZlL5Amw6MgKZXLNVU-427" value="&#39;i&#39;/" style="text;html=1;align=center;verticalAlign=middle;whiteSpace=wrap;rounded=0;" vertex="1" parent="1">
          <mxGeometry x="1880" y="210" width="40" height="40" as="geometry" />
        </mxCell>
        <mxCell id="oHiZlL5Amw6MgKZXLNVU-428" value="&#39;f&#39;/" style="text;html=1;align=center;verticalAlign=middle;whiteSpace=wrap;rounded=0;" vertex="1" parent="1">
          <mxGeometry x="1880" y="160" width="40" height="40" as="geometry" />
        </mxCell>
        <mxCell id="oHiZlL5Amw6MgKZXLNVU-429" value="&#39;[&#39;/" style="text;html=1;align=center;verticalAlign=middle;whiteSpace=wrap;rounded=0;" vertex="1" parent="1">
          <mxGeometry x="1880" y="110" width="40" height="40" as="geometry" />
        </mxCell>
        <mxCell id="oHiZlL5Amw6MgKZXLNVU-417" value="" style="ellipse;whiteSpace=wrap;html=1;aspect=fixed;fillColor=#000000;" vertex="1" parent="1">
          <mxGeometry x="1850" y="240" width="20" height="20" as="geometry" />
        </mxCell>
        <mxCell id="oHiZlL5Amw6MgKZXLNVU-419" value="" style="ellipse;whiteSpace=wrap;html=1;aspect=fixed;fillColor=#000000;" vertex="1" parent="1">
          <mxGeometry x="1850" y="190" width="20" height="20" as="geometry" />
        </mxCell>
        <mxCell id="oHiZlL5Amw6MgKZXLNVU-436" value="" style="curved=1;endArrow=classic;html=1;rounded=0;entryX=0.75;entryY=0;entryDx=0;entryDy=0;exitX=0.25;exitY=0;exitDx=0;exitDy=0;" edge="1" parent="1" source="oHiZlL5Amw6MgKZXLNVU-413" target="oHiZlL5Amw6MgKZXLNVU-413">
          <mxGeometry width="50" height="50" relative="1" as="geometry">
            <mxPoint x="1990" y="130" as="sourcePoint" />
            <mxPoint x="1990" y="150" as="targetPoint" />
            <Array as="points">
              <mxPoint x="1940" y="70" />
            </Array>
          </mxGeometry>
        </mxCell>
        <mxCell id="oHiZlL5Amw6MgKZXLNVU-437" value="" style="curved=1;endArrow=classic;html=1;rounded=0;entryX=1;entryY=0.75;entryDx=0;entryDy=0;exitX=1;exitY=0.25;exitDx=0;exitDy=0;" edge="1" parent="1" source="oHiZlL5Amw6MgKZXLNVU-409" target="oHiZlL5Amw6MgKZXLNVU-409">
          <mxGeometry width="50" height="50" relative="1" as="geometry">
            <mxPoint x="2070" y="310" as="sourcePoint" />
            <mxPoint x="2070" y="330" as="targetPoint" />
            <Array as="points">
              <mxPoint x="2200" y="320" />
            </Array>
          </mxGeometry>
        </mxCell>
        <mxCell id="oHiZlL5Amw6MgKZXLNVU-438" value="&lt;font style=&quot;font-size: 10px;&quot;&gt;W/&lt;/font&gt;" style="text;html=1;align=center;verticalAlign=middle;whiteSpace=wrap;rounded=0;" vertex="1" parent="1">
          <mxGeometry x="2040" y="300" width="40" height="40" as="geometry" />
        </mxCell>
        <mxCell id="oHiZlL5Amw6MgKZXLNVU-459" style="edgeStyle=orthogonalEdgeStyle;rounded=0;orthogonalLoop=1;jettySize=auto;html=1;exitX=1;exitY=0.5;exitDx=0;exitDy=0;entryX=0.5;entryY=1;entryDx=0;entryDy=0;" edge="1" parent="1" source="oHiZlL5Amw6MgKZXLNVU-439" target="oHiZlL5Amw6MgKZXLNVU-457">
          <mxGeometry relative="1" as="geometry" />
        </mxCell>
        <mxCell id="oHiZlL5Amw6MgKZXLNVU-439" value="&#39;?3&#39;" style="rounded=1;whiteSpace=wrap;html=1;" vertex="1" parent="1">
          <mxGeometry x="2000" y="230" width="40" height="40" as="geometry" />
        </mxCell>
        <mxCell id="oHiZlL5Amw6MgKZXLNVU-458" style="edgeStyle=orthogonalEdgeStyle;rounded=0;orthogonalLoop=1;jettySize=auto;html=1;exitX=1;exitY=0.5;exitDx=0;exitDy=0;entryX=0.5;entryY=1;entryDx=0;entryDy=0;" edge="1" parent="1" source="oHiZlL5Amw6MgKZXLNVU-440" target="oHiZlL5Amw6MgKZXLNVU-456">
          <mxGeometry relative="1" as="geometry" />
        </mxCell>
        <mxCell id="oHiZlL5Amw6MgKZXLNVU-440" value="&#39;?f6&#39;" style="rounded=1;whiteSpace=wrap;html=1;" vertex="1" parent="1">
          <mxGeometry x="2000" y="180" width="40" height="40" as="geometry" />
        </mxCell>
        <mxCell id="oHiZlL5Amw6MgKZXLNVU-451" style="edgeStyle=orthogonalEdgeStyle;rounded=0;orthogonalLoop=1;jettySize=auto;html=1;exitX=1;exitY=0.5;exitDx=0;exitDy=0;entryX=0;entryY=0.5;entryDx=0;entryDy=0;" edge="1" parent="1" source="oHiZlL5Amw6MgKZXLNVU-441" target="oHiZlL5Amw6MgKZXLNVU-450">
          <mxGeometry relative="1" as="geometry" />
        </mxCell>
        <mxCell id="oHiZlL5Amw6MgKZXLNVU-441" value="&#39;?[ ]&#39;" style="rounded=1;whiteSpace=wrap;html=1;" vertex="1" parent="1">
          <mxGeometry x="2000" y="130" width="40" height="40" as="geometry" />
        </mxCell>
        <mxCell id="oHiZlL5Amw6MgKZXLNVU-445" value="&lt;font style=&quot;font-size: 10px;&quot;&gt;W/&lt;/font&gt;" style="text;html=1;align=center;verticalAlign=middle;whiteSpace=wrap;rounded=0;" vertex="1" parent="1">
          <mxGeometry x="2020" y="90" width="40" height="40" as="geometry" />
        </mxCell>
        <mxCell id="oHiZlL5Amw6MgKZXLNVU-446" value="" style="curved=1;endArrow=classic;html=1;rounded=0;entryX=0.75;entryY=0;entryDx=0;entryDy=0;exitX=0.25;exitY=0;exitDx=0;exitDy=0;" edge="1" parent="1" source="oHiZlL5Amw6MgKZXLNVU-441" target="oHiZlL5Amw6MgKZXLNVU-441">
          <mxGeometry width="50" height="50" relative="1" as="geometry">
            <mxPoint x="2010" y="130" as="sourcePoint" />
            <mxPoint x="2030" y="130" as="targetPoint" />
            <Array as="points">
              <mxPoint x="2020" y="70" />
            </Array>
          </mxGeometry>
        </mxCell>
        <mxCell id="oHiZlL5Amw6MgKZXLNVU-447" value="&#39;]&#39;/" style="text;html=1;align=center;verticalAlign=middle;whiteSpace=wrap;rounded=0;" vertex="1" parent="1">
          <mxGeometry x="1960" y="110" width="40" height="40" as="geometry" />
        </mxCell>
        <mxCell id="oHiZlL5Amw6MgKZXLNVU-448" value="&#39;6&#39;/" style="text;html=1;align=center;verticalAlign=middle;whiteSpace=wrap;rounded=0;" vertex="1" parent="1">
          <mxGeometry x="1960" y="160" width="40" height="40" as="geometry" />
        </mxCell>
        <mxCell id="oHiZlL5Amw6MgKZXLNVU-449" value="&#39;3&#39;/" style="text;html=1;align=center;verticalAlign=middle;whiteSpace=wrap;rounded=0;" vertex="1" parent="1">
          <mxGeometry x="1960" y="210" width="40" height="40" as="geometry" />
        </mxCell>
        <mxCell id="oHiZlL5Amw6MgKZXLNVU-453" style="edgeStyle=orthogonalEdgeStyle;rounded=0;orthogonalLoop=1;jettySize=auto;html=1;exitX=0.5;exitY=0;exitDx=0;exitDy=0;entryX=0.5;entryY=1;entryDx=0;entryDy=0;" edge="1" parent="1" source="oHiZlL5Amw6MgKZXLNVU-450" target="oHiZlL5Amw6MgKZXLNVU-452">
          <mxGeometry relative="1" as="geometry" />
        </mxCell>
        <mxCell id="oHiZlL5Amw6MgKZXLNVU-450" value="&#39;?[ ]u&#39;" style="rounded=1;whiteSpace=wrap;html=1;" vertex="1" parent="1">
          <mxGeometry x="2080" y="130" width="40" height="40" as="geometry" />
        </mxCell>
        <mxCell id="oHiZlL5Amw6MgKZXLNVU-452" value="" style="ellipse;whiteSpace=wrap;html=1;aspect=fixed;" vertex="1" parent="1">
          <mxGeometry x="2090" y="80" width="20" height="20" as="geometry" />
        </mxCell>
        <mxCell id="oHiZlL5Amw6MgKZXLNVU-454" value="&#39;u&#39;/" style="text;html=1;align=center;verticalAlign=middle;whiteSpace=wrap;rounded=0;" vertex="1" parent="1">
          <mxGeometry x="2040" y="110" width="40" height="40" as="geometry" />
        </mxCell>
        <mxCell id="oHiZlL5Amw6MgKZXLNVU-455" value="&#39;8&#39;/&lt;br&gt;T?u8" style="text;html=1;align=center;verticalAlign=middle;whiteSpace=wrap;rounded=0;" vertex="1" parent="1">
          <mxGeometry x="2100" y="90" width="40" height="40" as="geometry" />
        </mxCell>
        <mxCell id="oHiZlL5Amw6MgKZXLNVU-456" value="" style="ellipse;whiteSpace=wrap;html=1;aspect=fixed;" vertex="1" parent="1">
          <mxGeometry x="2150" y="80" width="20" height="20" as="geometry" />
        </mxCell>
        <mxCell id="oHiZlL5Amw6MgKZXLNVU-457" value="" style="ellipse;whiteSpace=wrap;html=1;aspect=fixed;" vertex="1" parent="1">
          <mxGeometry x="2210" y="80" width="20" height="20" as="geometry" />
        </mxCell>
        <mxCell id="oHiZlL5Amw6MgKZXLNVU-460" value="&#39;4&#39;/&lt;br&gt;T?f64" style="text;html=1;align=center;verticalAlign=middle;whiteSpace=wrap;rounded=0;" vertex="1" parent="1">
          <mxGeometry x="2120" y="160" width="40" height="40" as="geometry" />
        </mxCell>
        <mxCell id="oHiZlL5Amw6MgKZXLNVU-461" value="&#39;2&#39;/&lt;br&gt;T?i32" style="text;html=1;align=center;verticalAlign=middle;whiteSpace=wrap;rounded=0;" vertex="1" parent="1">
          <mxGeometry x="2180" y="210" width="40" height="40" as="geometry" />
        </mxCell>
        <mxCell id="oHiZlL5Amw6MgKZXLNVU-469" style="edgeStyle=orthogonalEdgeStyle;rounded=0;orthogonalLoop=1;jettySize=auto;html=1;exitX=0;exitY=0.5;exitDx=0;exitDy=0;entryX=1;entryY=0.5;entryDx=0;entryDy=0;" edge="1" parent="1" source="oHiZlL5Amw6MgKZXLNVU-463" target="oHiZlL5Amw6MgKZXLNVU-468">
          <mxGeometry relative="1" as="geometry" />
        </mxCell>
        <mxCell id="oHiZlL5Amw6MgKZXLNVU-473" style="edgeStyle=orthogonalEdgeStyle;rounded=0;orthogonalLoop=1;jettySize=auto;html=1;exitX=0.5;exitY=0;exitDx=0;exitDy=0;entryX=0.5;entryY=1;entryDx=0;entryDy=0;" edge="1" parent="1" source="oHiZlL5Amw6MgKZXLNVU-463" target="oHiZlL5Amw6MgKZXLNVU-472">
          <mxGeometry relative="1" as="geometry" />
        </mxCell>
        <mxCell id="oHiZlL5Amw6MgKZXLNVU-463" value="State: \" style="rounded=1;whiteSpace=wrap;html=1;" vertex="1" parent="1">
          <mxGeometry x="2360" y="280" width="80" height="80" as="geometry" />
        </mxCell>
        <mxCell id="oHiZlL5Amw6MgKZXLNVU-466" value="" style="ellipse;whiteSpace=wrap;html=1;aspect=fixed;fillColor=#000000;" vertex="1" parent="1">
          <mxGeometry x="2390" y="430" width="20" height="20" as="geometry" />
        </mxCell>
        <mxCell id="oHiZlL5Amw6MgKZXLNVU-468" value="LEXICAL ERROR" style="shape=hexagon;perimeter=hexagonPerimeter2;whiteSpace=wrap;html=1;fixedSize=1;fillColor=#FF9933;" vertex="1" parent="1">
          <mxGeometry x="2240" y="300" width="80" height="40" as="geometry" />
        </mxCell>
        <mxCell id="oHiZlL5Amw6MgKZXLNVU-471" value="else/" style="text;html=1;align=center;verticalAlign=middle;whiteSpace=wrap;rounded=0;" vertex="1" parent="1">
          <mxGeometry x="2320" y="280" width="40" height="40" as="geometry" />
        </mxCell>
        <mxCell id="oHiZlL5Amw6MgKZXLNVU-484" style="edgeStyle=orthogonalEdgeStyle;rounded=0;orthogonalLoop=1;jettySize=auto;html=1;exitX=0.5;exitY=0;exitDx=0;exitDy=0;entryX=0.5;entryY=1;entryDx=0;entryDy=0;" edge="1" parent="1" source="oHiZlL5Amw6MgKZXLNVU-472" target="oHiZlL5Amw6MgKZXLNVU-479">
          <mxGeometry relative="1" as="geometry" />
        </mxCell>
        <mxCell id="oHiZlL5Amw6MgKZXLNVU-472" value="State: \\" style="rounded=1;whiteSpace=wrap;html=1;" vertex="1" parent="1">
          <mxGeometry x="2380" y="200" width="40" height="40" as="geometry" />
        </mxCell>
        <mxCell id="oHiZlL5Amw6MgKZXLNVU-474" value="&quot;\&quot;/" style="text;html=1;align=center;verticalAlign=middle;whiteSpace=wrap;rounded=0;" vertex="1" parent="1">
          <mxGeometry x="2360" y="240" width="40" height="40" as="geometry" />
        </mxCell>
        <mxCell id="oHiZlL5Amw6MgKZXLNVU-475" value="" style="ellipse;whiteSpace=wrap;html=1;aspect=fixed;" vertex="1" parent="1">
          <mxGeometry x="2630" y="80" width="20" height="20" as="geometry" />
        </mxCell>
        <mxCell id="oHiZlL5Amw6MgKZXLNVU-477" value="" style="curved=1;endArrow=classic;html=1;rounded=0;entryX=0;entryY=0.75;entryDx=0;entryDy=0;exitX=0;exitY=0.25;exitDx=0;exitDy=0;" edge="1" parent="1" source="oHiZlL5Amw6MgKZXLNVU-472" target="oHiZlL5Amw6MgKZXLNVU-472">
          <mxGeometry width="50" height="50" relative="1" as="geometry">
            <mxPoint x="2320" y="210" as="sourcePoint" />
            <mxPoint x="2340" y="210" as="targetPoint" />
            <Array as="points">
              <mxPoint x="2300" y="220" />
            </Array>
          </mxGeometry>
        </mxCell>
        <mxCell id="oHiZlL5Amw6MgKZXLNVU-478" value="(LF)/" style="text;html=1;align=center;verticalAlign=middle;whiteSpace=wrap;rounded=0;" vertex="1" parent="1">
          <mxGeometry x="2360" y="160" width="40" height="40" as="geometry" />
        </mxCell>
        <mxCell id="oHiZlL5Amw6MgKZXLNVU-485" style="edgeStyle=orthogonalEdgeStyle;rounded=0;orthogonalLoop=1;jettySize=auto;html=1;exitX=0.5;exitY=0;exitDx=0;exitDy=0;entryX=0.5;entryY=0;entryDx=0;entryDy=0;" edge="1" parent="1" source="oHiZlL5Amw6MgKZXLNVU-479" target="oHiZlL5Amw6MgKZXLNVU-483">
          <mxGeometry relative="1" as="geometry" />
        </mxCell>
        <mxCell id="oHiZlL5Amw6MgKZXLNVU-479" value="State: \\LF" style="rounded=1;whiteSpace=wrap;html=1;" vertex="1" parent="1">
          <mxGeometry x="2380" y="120" width="40" height="40" as="geometry" />
        </mxCell>
        <mxCell id="oHiZlL5Amw6MgKZXLNVU-480" value="else/+" style="text;html=1;align=center;verticalAlign=middle;whiteSpace=wrap;rounded=0;" vertex="1" parent="1">
          <mxGeometry x="2300" y="200" width="40" height="40" as="geometry" />
        </mxCell>
        <mxCell id="oHiZlL5Amw6MgKZXLNVU-489" style="edgeStyle=orthogonalEdgeStyle;rounded=0;orthogonalLoop=1;jettySize=auto;html=1;exitX=0.5;exitY=1;exitDx=0;exitDy=0;entryX=1;entryY=0.5;entryDx=0;entryDy=0;" edge="1" parent="1" source="oHiZlL5Amw6MgKZXLNVU-483" target="oHiZlL5Amw6MgKZXLNVU-472">
          <mxGeometry relative="1" as="geometry" />
        </mxCell>
        <mxCell id="oHiZlL5Amw6MgKZXLNVU-492" style="edgeStyle=orthogonalEdgeStyle;rounded=0;orthogonalLoop=1;jettySize=auto;html=1;exitX=1;exitY=0.5;exitDx=0;exitDy=0;entryX=0.5;entryY=1;entryDx=0;entryDy=0;" edge="1" parent="1" source="oHiZlL5Amw6MgKZXLNVU-483" target="oHiZlL5Amw6MgKZXLNVU-490">
          <mxGeometry relative="1" as="geometry" />
        </mxCell>
        <mxCell id="oHiZlL5Amw6MgKZXLNVU-494" style="edgeStyle=orthogonalEdgeStyle;rounded=0;orthogonalLoop=1;jettySize=auto;html=1;exitX=1;exitY=1;exitDx=0;exitDy=0;entryX=0.5;entryY=1;entryDx=0;entryDy=0;" edge="1" parent="1" source="oHiZlL5Amw6MgKZXLNVU-483" target="oHiZlL5Amw6MgKZXLNVU-475">
          <mxGeometry relative="1" as="geometry">
            <Array as="points">
              <mxPoint x="2500" y="200" />
              <mxPoint x="2640" y="200" />
            </Array>
          </mxGeometry>
        </mxCell>
        <mxCell id="oHiZlL5Amw6MgKZXLNVU-483" value="Skip all whitespaces" style="rhombus;whiteSpace=wrap;html=1;" vertex="1" parent="1">
          <mxGeometry x="2440" y="120" width="80" height="80" as="geometry" />
        </mxCell>
        <mxCell id="oHiZlL5Amw6MgKZXLNVU-490" value="LEXICAL ERROR" style="shape=hexagon;perimeter=hexagonPerimeter2;whiteSpace=wrap;html=1;fixedSize=1;fillColor=#FF9933;" vertex="1" parent="1">
          <mxGeometry x="2520" y="100" width="80" height="40" as="geometry" />
        </mxCell>
        <mxCell id="oHiZlL5Amw6MgKZXLNVU-491" value="&quot;\\&quot;/&lt;br&gt;+\n" style="text;html=1;align=center;verticalAlign=middle;whiteSpace=wrap;rounded=0;" vertex="1" parent="1">
          <mxGeometry x="2440" y="220" width="40" height="40" as="geometry" />
        </mxCell>
        <mxCell id="oHiZlL5Amw6MgKZXLNVU-493" value="&quot;\&quot;/" style="text;html=1;align=center;verticalAlign=middle;whiteSpace=wrap;rounded=0;" vertex="1" parent="1">
          <mxGeometry x="2520" y="160" width="40" height="40" as="geometry" />
        </mxCell>
        <mxCell id="oHiZlL5Amw6MgKZXLNVU-495" value="else/&lt;br&gt;Tstring" style="text;html=1;align=center;verticalAlign=middle;whiteSpace=wrap;rounded=0;" vertex="1" parent="1">
          <mxGeometry x="2600" y="160" width="40" height="40" as="geometry" />
        </mxCell>
        <mxCell id="oHiZlL5Amw6MgKZXLNVU-547" style="edgeStyle=orthogonalEdgeStyle;rounded=0;orthogonalLoop=1;jettySize=auto;html=1;exitX=1;exitY=0.25;exitDx=0;exitDy=0;entryX=1;entryY=0.5;entryDx=0;entryDy=0;" edge="1" parent="1" source="oHiZlL5Amw6MgKZXLNVU-539" target="oHiZlL5Amw6MgKZXLNVU-546">
          <mxGeometry relative="1" as="geometry">
            <Array as="points">
              <mxPoint x="3080" y="300" />
              <mxPoint x="3080" y="220" />
            </Array>
          </mxGeometry>
        </mxCell>
        <mxCell id="oHiZlL5Amw6MgKZXLNVU-560" style="edgeStyle=orthogonalEdgeStyle;rounded=0;orthogonalLoop=1;jettySize=auto;html=1;exitX=0;exitY=0.5;exitDx=0;exitDy=0;entryX=0.5;entryY=1;entryDx=0;entryDy=0;" edge="1" parent="1" source="oHiZlL5Amw6MgKZXLNVU-539" target="oHiZlL5Amw6MgKZXLNVU-559">
          <mxGeometry relative="1" as="geometry">
            <Array as="points">
              <mxPoint x="2700" y="320" />
              <mxPoint x="2700" y="120" />
              <mxPoint x="2880" y="120" />
            </Array>
          </mxGeometry>
        </mxCell>
        <mxCell id="oHiZlL5Amw6MgKZXLNVU-539" value="State: &quot;" style="rounded=1;whiteSpace=wrap;html=1;" vertex="1" parent="1">
          <mxGeometry x="2720" y="280" width="320" height="80" as="geometry" />
        </mxCell>
        <mxCell id="oHiZlL5Amw6MgKZXLNVU-541" value="&quot;\&quot;/" style="text;html=1;align=center;verticalAlign=middle;whiteSpace=wrap;rounded=0;" vertex="1" parent="1">
          <mxGeometry x="2360" y="360" width="40" height="40" as="geometry" />
        </mxCell>
        <mxCell id="oHiZlL5Amw6MgKZXLNVU-542" value="&quot; &quot; &quot;/" style="text;html=1;align=center;verticalAlign=middle;whiteSpace=wrap;rounded=0;" vertex="1" parent="1">
          <mxGeometry x="2840" y="360" width="40" height="40" as="geometry" />
        </mxCell>
        <mxCell id="oHiZlL5Amw6MgKZXLNVU-543" value="" style="curved=1;endArrow=classic;html=1;rounded=0;entryX=1;entryY=0.75;entryDx=0;entryDy=0;exitX=1;exitY=0.5;exitDx=0;exitDy=0;" edge="1" parent="1" source="oHiZlL5Amw6MgKZXLNVU-539" target="oHiZlL5Amw6MgKZXLNVU-539">
          <mxGeometry width="50" height="50" relative="1" as="geometry">
            <mxPoint x="5330" y="1410" as="sourcePoint" />
            <mxPoint x="5330" y="1430" as="targetPoint" />
            <Array as="points">
              <mxPoint x="3190" y="330" />
            </Array>
          </mxGeometry>
        </mxCell>
        <mxCell id="oHiZlL5Amw6MgKZXLNVU-544" value="else/+" style="text;html=1;align=center;verticalAlign=middle;whiteSpace=wrap;rounded=0;" vertex="1" parent="1">
          <mxGeometry x="3080" y="290" width="40" height="40" as="geometry" />
        </mxCell>
        <mxCell id="oHiZlL5Amw6MgKZXLNVU-549" style="edgeStyle=orthogonalEdgeStyle;rounded=0;orthogonalLoop=1;jettySize=auto;html=1;exitX=0.25;exitY=1;exitDx=0;exitDy=0;entryX=0.25;entryY=0;entryDx=0;entryDy=0;" edge="1" parent="1" source="oHiZlL5Amw6MgKZXLNVU-546" target="oHiZlL5Amw6MgKZXLNVU-539">
          <mxGeometry relative="1" as="geometry" />
        </mxCell>
        <mxCell id="oHiZlL5Amw6MgKZXLNVU-551" style="edgeStyle=orthogonalEdgeStyle;rounded=0;orthogonalLoop=1;jettySize=auto;html=1;exitX=0.5;exitY=1;exitDx=0;exitDy=0;entryX=0.5;entryY=0;entryDx=0;entryDy=0;" edge="1" parent="1" source="oHiZlL5Amw6MgKZXLNVU-546" target="oHiZlL5Amw6MgKZXLNVU-539">
          <mxGeometry relative="1" as="geometry" />
        </mxCell>
        <mxCell id="oHiZlL5Amw6MgKZXLNVU-554" style="edgeStyle=orthogonalEdgeStyle;rounded=0;orthogonalLoop=1;jettySize=auto;html=1;exitX=0.75;exitY=1;exitDx=0;exitDy=0;entryX=0.75;entryY=0;entryDx=0;entryDy=0;" edge="1" parent="1" source="oHiZlL5Amw6MgKZXLNVU-546" target="oHiZlL5Amw6MgKZXLNVU-539">
          <mxGeometry relative="1" as="geometry" />
        </mxCell>
        <mxCell id="oHiZlL5Amw6MgKZXLNVU-564" style="edgeStyle=orthogonalEdgeStyle;rounded=0;orthogonalLoop=1;jettySize=auto;html=1;exitX=0.25;exitY=0;exitDx=0;exitDy=0;entryX=0;entryY=0.5;entryDx=0;entryDy=0;" edge="1" parent="1" source="oHiZlL5Amw6MgKZXLNVU-546" target="oHiZlL5Amw6MgKZXLNVU-563">
          <mxGeometry relative="1" as="geometry">
            <Array as="points">
              <mxPoint x="2800" y="160" />
            </Array>
          </mxGeometry>
        </mxCell>
        <mxCell id="oHiZlL5Amw6MgKZXLNVU-546" value="State: &quot;...\" style="rounded=1;whiteSpace=wrap;html=1;" vertex="1" parent="1">
          <mxGeometry x="2720" y="200" width="320" height="40" as="geometry" />
        </mxCell>
        <mxCell id="oHiZlL5Amw6MgKZXLNVU-548" value="&quot;\&quot;/" style="text;html=1;align=center;verticalAlign=middle;whiteSpace=wrap;rounded=0;" vertex="1" parent="1">
          <mxGeometry x="3040" y="220" width="40" height="40" as="geometry" />
        </mxCell>
        <mxCell id="oHiZlL5Amw6MgKZXLNVU-550" value="&quot; &quot; &quot;/+&quot;" style="text;html=1;align=center;verticalAlign=middle;whiteSpace=wrap;rounded=0;" vertex="1" parent="1">
          <mxGeometry x="2760" y="240" width="40" height="40" as="geometry" />
        </mxCell>
        <mxCell id="oHiZlL5Amw6MgKZXLNVU-552" value="&quot;r&quot;/+\r&quot;" style="text;html=1;align=center;verticalAlign=middle;whiteSpace=wrap;rounded=0;" vertex="1" parent="1">
          <mxGeometry x="2840" y="240" width="40" height="40" as="geometry" />
        </mxCell>
        <mxCell id="oHiZlL5Amw6MgKZXLNVU-553" value="&quot;\&quot;/+\" style="text;html=1;align=center;verticalAlign=middle;whiteSpace=wrap;rounded=0;" vertex="1" parent="1">
          <mxGeometry x="2920" y="240" width="40" height="40" as="geometry" />
        </mxCell>
        <mxCell id="oHiZlL5Amw6MgKZXLNVU-555" style="edgeStyle=orthogonalEdgeStyle;rounded=0;orthogonalLoop=1;jettySize=auto;html=1;exitX=0.25;exitY=1;exitDx=0;exitDy=0;entryX=0.25;entryY=0;entryDx=0;entryDy=0;" edge="1" parent="1">
          <mxGeometry relative="1" as="geometry">
            <mxPoint x="2839.4399999999996" y="240" as="sourcePoint" />
            <mxPoint x="2839.4399999999996" y="280" as="targetPoint" />
            <Array as="points">
              <mxPoint x="2839.4399999999996" y="260" />
              <mxPoint x="2839.4399999999996" y="260" />
            </Array>
          </mxGeometry>
        </mxCell>
        <mxCell id="oHiZlL5Amw6MgKZXLNVU-556" style="edgeStyle=orthogonalEdgeStyle;rounded=0;orthogonalLoop=1;jettySize=auto;html=1;exitX=0.25;exitY=1;exitDx=0;exitDy=0;entryX=0.25;entryY=0;entryDx=0;entryDy=0;" edge="1" parent="1">
          <mxGeometry relative="1" as="geometry">
            <mxPoint x="2920.0499999999993" y="240" as="sourcePoint" />
            <mxPoint x="2920.0499999999993" y="280" as="targetPoint" />
            <Array as="points">
              <mxPoint x="2920.0499999999993" y="260" />
              <mxPoint x="2920.0499999999993" y="260" />
            </Array>
          </mxGeometry>
        </mxCell>
        <mxCell id="oHiZlL5Amw6MgKZXLNVU-557" value="&quot;n&quot;/+\n" style="text;html=1;align=center;verticalAlign=middle;whiteSpace=wrap;rounded=0;" vertex="1" parent="1">
          <mxGeometry x="2800" y="240" width="40" height="40" as="geometry" />
        </mxCell>
        <mxCell id="oHiZlL5Amw6MgKZXLNVU-558" value="&quot;t&quot;/+\t" style="text;html=1;align=center;verticalAlign=middle;whiteSpace=wrap;rounded=0;" vertex="1" parent="1">
          <mxGeometry x="2880" y="240" width="40" height="40" as="geometry" />
        </mxCell>
        <mxCell id="oHiZlL5Amw6MgKZXLNVU-559" value="" style="ellipse;whiteSpace=wrap;html=1;aspect=fixed;" vertex="1" parent="1">
          <mxGeometry x="2870" y="80" width="20" height="20" as="geometry" />
        </mxCell>
        <mxCell id="oHiZlL5Amw6MgKZXLNVU-561" value="&quot; &quot; &quot;/&lt;br&gt;Tstring" style="text;html=1;align=center;verticalAlign=middle;whiteSpace=wrap;rounded=0;" vertex="1" parent="1">
          <mxGeometry x="2660" y="280" width="40" height="40" as="geometry" />
        </mxCell>
        <mxCell id="oHiZlL5Amw6MgKZXLNVU-566" style="edgeStyle=orthogonalEdgeStyle;rounded=0;orthogonalLoop=1;jettySize=auto;html=1;exitX=1;exitY=0.5;exitDx=0;exitDy=0;entryX=0.75;entryY=1;entryDx=0;entryDy=0;" edge="1" parent="1" source="oHiZlL5Amw6MgKZXLNVU-563" target="oHiZlL5Amw6MgKZXLNVU-539">
          <mxGeometry relative="1" as="geometry">
            <Array as="points">
              <mxPoint x="3140" y="160" />
              <mxPoint x="3140" y="380" />
              <mxPoint x="2960" y="380" />
            </Array>
          </mxGeometry>
        </mxCell>
        <mxCell id="oHiZlL5Amw6MgKZXLNVU-563" value="State:&lt;br&gt;&quot;...\x" style="rounded=1;whiteSpace=wrap;html=1;" vertex="1" parent="1">
          <mxGeometry x="2840" y="140" width="80" height="40" as="geometry" />
        </mxCell>
        <mxCell id="oHiZlL5Amw6MgKZXLNVU-565" value="&quot;x&quot;/" style="text;html=1;align=center;verticalAlign=middle;whiteSpace=wrap;rounded=0;" vertex="1" parent="1">
          <mxGeometry x="2760" y="160" width="40" height="40" as="geometry" />
        </mxCell>
        <mxCell id="oHiZlL5Amw6MgKZXLNVU-567" value="&quot;(16x)(16x)&quot;/&lt;br&gt;+ASCII" style="text;html=1;align=center;verticalAlign=middle;whiteSpace=wrap;rounded=0;" vertex="1" parent="1">
          <mxGeometry x="3000" y="120" width="80" height="40" as="geometry" />
        </mxCell>
        <mxCell id="oHiZlL5Amw6MgKZXLNVU-568" value="&lt;div&gt;&lt;b&gt;&lt;font style=&quot;font-size: 48px;&quot;&gt;LEGENDA&lt;/font&gt;&lt;/b&gt;&lt;/div&gt;" style="text;html=1;align=center;verticalAlign=middle;whiteSpace=wrap;rounded=0;" vertex="1" parent="1">
          <mxGeometry x="1600" y="640" width="480" height="80" as="geometry" />
        </mxCell>
        <mxCell id="oHiZlL5Amw6MgKZXLNVU-570" value="Start" style="rounded=1;whiteSpace=wrap;html=1;" vertex="1" parent="1">
          <mxGeometry x="2160" y="1720" width="240" height="80" as="geometry" />
        </mxCell>
        <mxCell id="oHiZlL5Amw6MgKZXLNVU-571" value="" style="curved=1;endArrow=classic;html=1;rounded=0;entryX=0.75;entryY=0;entryDx=0;entryDy=0;exitX=0.25;exitY=0;exitDx=0;exitDy=0;strokeColor=#CC99FF;" edge="1" parent="1" source="oHiZlL5Amw6MgKZXLNVU-570" target="oHiZlL5Amw6MgKZXLNVU-570">
          <mxGeometry width="50" height="50" relative="1" as="geometry">
            <mxPoint x="2240" y="1719.9999999999995" as="sourcePoint" />
            <mxPoint x="2320" y="1719.9999999999995" as="targetPoint" />
            <Array as="points">
              <mxPoint x="2280" y="1480" />
            </Array>
          </mxGeometry>
        </mxCell>
        <mxCell id="oHiZlL5Amw6MgKZXLNVU-572" value="W/" style="text;html=1;align=center;verticalAlign=middle;whiteSpace=wrap;rounded=0;" vertex="1" parent="1">
          <mxGeometry x="2200" y="1600" width="40" height="40" as="geometry" />
        </mxCell>
        <mxCell id="oHiZlL5Amw6MgKZXLNVU-573" value="Start" style="rounded=1;whiteSpace=wrap;html=1;" vertex="1" parent="1">
          <mxGeometry x="2160" y="1400" width="240" height="80" as="geometry" />
        </mxCell>
        <mxCell id="oHiZlL5Amw6MgKZXLNVU-574" value="Start" style="rounded=1;whiteSpace=wrap;html=1;" vertex="1" parent="1">
          <mxGeometry x="2160" y="1120" width="240" height="80" as="geometry" />
        </mxCell>
        <mxCell id="oHiZlL5Amw6MgKZXLNVU-580" value="&lt;b style=&quot;forced-color-adjust: none; color: rgb(0, 0, 0); font-family: Helvetica; font-size: 12px; font-style: normal; font-variant-ligatures: normal; font-variant-caps: normal; letter-spacing: normal; orphans: 2; text-indent: 0px; text-transform: none; widows: 2; word-spacing: 0px; -webkit-text-stroke-width: 0px; white-space: normal; background-color: rgb(251, 251, 251); text-decoration-thickness: initial; text-decoration-style: initial; text-decoration-color: initial;&quot;&gt;&lt;u style=&quot;forced-color-adjust: none;&quot;&gt;&lt;font style=&quot;forced-color-adjust: none; font-size: 24px;&quot;&gt;Vstupy:&lt;/font&gt;&lt;/u&gt;&lt;/b&gt;" style="text;whiteSpace=wrap;html=1;align=center;" vertex="1" parent="1">
          <mxGeometry x="1600" y="720" width="480" height="40" as="geometry" />
        </mxCell>
        <mxCell id="oHiZlL5Amw6MgKZXLNVU-581" value="&lt;div&gt;&lt;div&gt;&lt;font size=&quot;3&quot; style=&quot;&quot;&gt;L ... letter&lt;/font&gt;&lt;/div&gt;&lt;div&gt;&lt;font size=&quot;3&quot; style=&quot;&quot;&gt;N ... number&lt;/font&gt;&lt;/div&gt;&lt;div&gt;&lt;font size=&quot;3&quot;&gt;W ... whitespace&lt;/font&gt;&lt;/div&gt;&lt;div&gt;&lt;font size=&quot;3&quot;&gt;S ... special simple&lt;/font&gt;&lt;/div&gt;&lt;div&gt;&lt;font size=&quot;3&quot;&gt;C ... special complex&lt;/font&gt;&lt;/div&gt;&lt;div&gt;&lt;font size=&quot;3&quot;&gt;X - not in language&lt;/font&gt;&lt;/div&gt;&lt;div style=&quot;&quot;&gt;&lt;div style=&quot;&quot;&gt;&lt;font size=&quot;3&quot;&gt;E ... EOF&lt;/font&gt;&lt;/div&gt;&lt;div style=&quot;&quot;&gt;&lt;font size=&quot;3&quot;&gt;&quot;znak&quot; ... konkrÃ©tnÃ­ znak&lt;/font&gt;&lt;/div&gt;&lt;/div&gt;&lt;/div&gt;" style="text;html=1;align=center;verticalAlign=middle;whiteSpace=wrap;rounded=0;" vertex="1" parent="1">
          <mxGeometry x="1600" y="760" width="480" height="160" as="geometry" />
        </mxCell>
        <mxCell id="oHiZlL5Amw6MgKZXLNVU-582" value="&lt;div style=&quot;text-align: left;&quot;&gt;&lt;font style=&quot;font-size: 14px;&quot;&gt;+ ... appendChar&lt;/font&gt;&lt;/div&gt;&lt;div style=&quot;text-align: left;&quot;&gt;&lt;font style=&quot;font-size: 14px;&quot;&gt;- ... ungetChar&lt;/font&gt;&lt;/div&gt;&lt;div style=&quot;text-align: left;&quot;&gt;&lt;font style=&quot;font-size: 14px;&quot;&gt;T(name) .. sendToken to Parser&lt;/font&gt;&lt;/div&gt;" style="text;html=1;align=center;verticalAlign=middle;whiteSpace=wrap;rounded=0;" vertex="1" parent="1">
          <mxGeometry x="1600" y="960" width="480" height="60" as="geometry" />
        </mxCell>
        <mxCell id="oHiZlL5Amw6MgKZXLNVU-583" value="&lt;b style=&quot;forced-color-adjust: none; color: rgb(0, 0, 0); font-family: Helvetica; font-size: 12px; font-style: normal; font-variant-ligatures: normal; font-variant-caps: normal; letter-spacing: normal; orphans: 2; text-indent: 0px; text-transform: none; widows: 2; word-spacing: 0px; -webkit-text-stroke-width: 0px; white-space: normal; background-color: rgb(251, 251, 251); text-decoration-thickness: initial; text-decoration-style: initial; text-decoration-color: initial;&quot;&gt;&lt;u style=&quot;forced-color-adjust: none;&quot;&gt;&lt;font style=&quot;forced-color-adjust: none; font-size: 24px;&quot;&gt;VÃ½stupy:&lt;/font&gt;&lt;/u&gt;&lt;/b&gt;" style="text;whiteSpace=wrap;html=1;align=center;" vertex="1" parent="1">
          <mxGeometry x="1600" y="920" width="480" height="40" as="geometry" />
        </mxCell>
      </root>
    </mxGraphModel>
  </diagram>
</mxfile>
